<?xml version="1.0" encoding="UTF-8"?>
<svg width="65px" height="76px" viewBox="0 0 65 76" version="1.1" xmlns="http://www.w3.org/2000/svg" xmlns:xlink="http://www.w3.org/1999/xlink">
    <!-- Generator: Sketch 62 (91390) - https://sketch.com -->
    <title>Group 7</title>
    <desc>Created with Sketch.</desc>
    <g id="Website" stroke="none" stroke-width="1" fill="none" fill-rule="evenodd">
        <g id="Set-Medic-LA" transform="translate(-120.000000, -3287.000000)" fill-rule="nonzero">
            <g id="Group-7" transform="translate(120.000000, 3287.000000)">
                <g id="Group" transform="translate(0.500000, 0.000000)" fill="#FFFFFF">
                    <path d="M60.7525371,6.32281751 C42.9908134,6.32281751 33.8799313,0.610051082 33.7364434,0.518298793 C32.6664417,-0.172766264 31.2847964,-0.172766264 30.2147947,0.518298793 C30.1248649,0.575643974 21.0127838,6.32281751 3.19750195,6.32281751 C1.43157039,6.32281751 1.13686838e-13,7.73933127 1.13686838e-13,9.48668954 L1.13686838e-13,44.2892818 C1.13686838e-13,50.5644265 5.25629352,57.7918967 15.6229945,65.7699955 C20.3229714,69.3566882 25.2678304,72.6177081 30.4222326,75.5297497 C31.3879205,76.0605747 32.5621185,76.0605747 33.5278064,75.5297497 C38.6822086,72.6177081 43.6270677,69.3566882 48.3270445,65.7699955 C58.6937455,57.7918967 63.950039,50.5644265 63.950039,44.2892818 L63.950039,9.48668954 C63.950039,7.73933127 62.5184686,6.32281751 60.7525371,6.32281751 L60.7525371,6.32281751 Z M60.7525371,44.2892818 C60.7525371,49.4637945 55.7768244,56.028038 46.3637783,63.272514 C41.7943365,66.7607355 36.9866193,69.93217 31.9750195,72.7641301 C26.9635095,69.9320261 22.1558022,66.7605981 17.5862607,63.272514 C8.17321468,56.028038 3.19750195,49.4637945 3.19750195,44.2892818 L3.19750195,9.48668954 C21.9632412,9.48668954 31.5633411,3.42510622 31.9626292,3.16685516 C32.4038845,3.43341138 42.0843216,9.48668954 60.7525371,9.48668954 L60.7525371,44.2892818 Z" id="Shape"></path>
                    <path d="M6.3950039,12.5936119 L6.3950039,44.2892818 C6.3950039,46.202238 7.6768025,51.6381656 19.5495269,60.7750325 C23.5161761,63.8011512 27.6657153,66.5849931 31.9750195,69.1110443 C36.2840571,66.5843777 40.4336921,63.800561 44.4009118,60.7750325 C56.2732365,51.6381656 57.5550351,46.202238 57.5550351,44.2892818 L57.5550351,12.5928209 C44.1559032,12.1028162 35.6097799,8.62809377 31.983413,6.79502541 C28.5013333,8.5877544 20.024356,12.1055846 6.3950039,12.5936119 Z" id="Path"></path>
                </g>
                <path d="M38.4595308,26.811129 C38.5342856,26.7722087 38.5872094,26.7467979 38.6384793,26.7172056 C41.4934949,25.1127895 44.3477388,23.5074084 47.2012109,21.9010623 C47.3381511,21.823865 47.3890902,21.8367312 47.4694681,21.9731131 C49.1233352,24.7607915 50.7810614,27.5449317 52.4426465,30.3255337 C52.5220321,30.458699 52.5088012,30.5085555 52.3715302,30.5873611 C49.5775974,32.1870596 46.7855389,33.7899747 43.9953548,35.3961063 C43.948385,35.4231254 43.901746,35.4511094 43.8534531,35.4797367 C43.8938074,35.5440677 43.9609544,35.5607938 44.0165243,35.5913511 C46.8062674,37.135296 49.5968925,38.6763461 52.3883997,40.2145013 C52.5154167,40.2846221 52.5289784,40.3286889 52.4545544,40.4522045 C50.7848101,43.2480315 49.1189249,46.0464318 47.4568987,48.8474053 C47.3861132,48.9667394 47.3401357,48.985717 47.2124572,48.9117363 C44.428227,47.3060336 41.6420122,45.7036546 38.8538128,44.1045993 C38.7985736,44.0724338 38.7499499,44.0251505 38.6626257,44.0206473 L38.6626257,44.1933762 C38.6626257,47.3989919 38.6640591,50.6048221 38.6669258,53.8108667 C38.6669258,53.9694428 38.6239252,54 38.4684617,54 C35.1607275,53.995068 31.8529933,53.995068 28.545259,54 C28.3798723,54 28.3279409,53.9697644 28.3282717,53.7963923 C28.3346666,50.5961374 28.3362102,47.3958826 28.3329025,44.1956277 L28.3329025,44.0196823 C28.2465706,44.0222556 28.1979469,44.0708255 28.1430386,44.1023477 C25.3601315,45.7001164 22.5784373,47.2996005 19.7979559,48.9008001 C19.662008,48.9792839 19.6113997,48.968991 19.5306909,48.8329308 C17.8748392,46.0422503 16.2144669,43.2538213 14.549574,40.4676439 C14.4708499,40.336087 14.4797808,40.2839788 14.6206903,40.2064599 C17.4086692,38.6719502 20.1947737,37.1339022 22.9790039,35.592316 C23.0352354,35.5601505 23.0904745,35.527985 23.1609293,35.4871348 L21.0542333,34.2767462 C18.9072933,33.0428769 16.759802,31.8098653 14.6117594,30.5777114 C14.4910271,30.5085555 14.4695268,30.4641671 14.5456047,30.3387216 C16.21579,27.5428946 17.8817854,24.7444943 19.5435911,21.9435208 C19.6117304,21.8290115 19.6600234,21.8148587 19.7784402,21.8846579 C22.5529677,23.4852142 25.3294798,25.0825539 28.1079766,26.6766771 C28.1741313,26.7139891 28.2402859,26.7500145 28.3332333,26.8024443 L28.3332333,26.5920818 C28.3332333,23.4613045 28.3319102,20.3305271 28.329264,17.1997498 C28.329264,17.0389222 28.3669722,17 28.5340127,17 C31.7808847,17.0060062 35.0277566,17.0062206 38.2746285,17.0006453 C38.4221534,17.0006453 38.4635001,17.0328108 38.4635001,17.1814155 C38.4586488,20.3224858 38.4573257,23.4639849 38.4595308,26.6059129 C38.4096943,26.7686705 38.4096943,26.8370758 38.4595308,26.811129 Z" id="Path" stroke="#000000" stroke-width="4" stroke-linejoin="round"></path>
                <path d="M38.1593456,43.7757113 C38.1270548,43.8374575 38.143846,43.9014433 38.143846,43.9628696 C38.143846,47.2419272 38.1449223,50.5209848 38.1470751,53.8000423 C38.1470751,53.9644858 38.1041283,54 37.9433199,54 C34.9835428,53.994879 32.0235504,53.9934927 29.0633426,53.9958388 C28.8163178,53.9958388 28.8531294,54.0169541 28.8531294,53.778927 C28.8531294,50.5105338 28.8531294,47.2421405 28.8531294,43.9737472 L28.8531294,43.7817899 C28.7724023,43.7705924 28.7268722,43.8240205 28.6742382,43.8547337 C25.8696723,45.4953289 23.0660751,47.1376304 20.2634466,48.7816382 C20.1446163,48.8513827 20.0919823,48.8565015 20.0144843,48.7230912 C18.5275994,46.1657932 17.0360861,43.6123343 15.5399445,41.0627145 C15.4718108,40.9465803 15.4892479,40.9027501 15.6045261,40.8387643 C18.4144739,39.2604486 21.222807,37.6804266 24.0295257,36.0986983 L24.211323,35.9966409 C24.1425436,35.9544103 24.0947532,35.9236972 24.045994,35.8949036 C21.2375532,34.2504692 18.4282513,32.6069946 15.6180883,30.9644798 C15.4950602,30.8928158 15.4731025,30.8451464 15.548663,30.7162151 C17.0420061,28.1702212 18.531259,25.6219878 20.0164218,23.0715149 C20.0868158,22.9502618 20.1307313,22.9355451 20.2547281,23.0075291 C23.0608009,24.6558026 25.8688112,26.3009834 28.6787589,27.9430717 C28.7284868,27.9721852 28.7785376,28.0003389 28.8324632,28.031372 C28.8679831,27.9600279 28.8521606,27.8960421 28.8521606,27.8352556 C28.8521606,24.6199706 28.8511919,21.4047921 28.8492545,18.1897203 C28.8492545,18.0297559 28.8941387,18 29.0462285,18 C31.9470211,18.0044815 34.847706,18.0044815 37.7482834,18 C37.9019877,18 37.9449345,18.0345548 37.9449345,18.1919598 C37.939768,21.4019128 37.9384763,24.6118657 37.9410596,27.8218186 L37.9410596,28.0185749 C38.0211408,28.0259332 38.0679625,27.9769841 38.1196279,27.9472307 C40.9909282,26.3049292 43.8613674,24.6609215 46.7309455,23.0152074 C46.8500986,22.9470625 46.904993,22.9409839 46.9831368,23.075354 C48.4672232,25.6264668 49.9560456,28.1752334 51.449604,30.7216538 C51.519998,30.8416272 51.5116024,30.8876969 51.3879285,30.9600008 C48.5596826,32.6091275 45.7321902,34.2629464 42.9054513,35.9214577 L42.8085788,35.9793648 C42.8315053,36.0468698 42.8967327,36.0577474 42.9448461,36.0849413 C45.7472593,37.663257 48.5502107,39.2415728 51.3537002,40.8198885 C51.5345288,40.9216259 51.5342059,40.9213059 51.4263546,41.1059049 C49.9459278,43.6405946 48.4665774,46.1758176 46.9883034,48.7115738 C46.9104825,48.845304 46.8617233,48.8561816 46.7283622,48.777799 C43.9272407,47.1316584 41.1238587,45.4893569 38.3182164,43.8508945 C38.2684886,43.8221009 38.224896,43.7785906 38.1593456,43.7757113 Z" id="Path" fill="#000000"></path>
                <path d="M32.4577692,49.1453176 C32.4828571,48.7310632 32.4062901,48.2364974 32.4251875,47.7397095 C32.4317038,47.5594056 32.2671662,47.4819512 32.1726793,47.3702136 C31.720771,46.8334287 31.3783372,46.2464889 31.2929731,45.5487638 C31.2190126,44.936429 31.3718209,44.3637739 31.7025252,43.8384167 C31.832852,43.6314482 31.9716501,43.4257494 32.1586691,43.2670313 C32.2948607,43.1495798 32.3466656,43.0156217 32.3241842,42.8457932 C32.2629306,42.38805 32.3202744,41.9252278 32.2870411,41.4687543 C32.2609757,41.1097338 32.2652113,40.7513482 32.2609757,40.3926451 C32.2664726,40.3280156 32.2330619,40.2661309 32.1752858,40.2339269 C31.6028252,39.904428 31.2372584,39.4114493 31.0297129,38.8080028 C30.8697367,38.3413714 30.7599364,37.8601379 30.8648495,37.3649372 C30.9254515,37.0808316 31.0896633,36.8398975 31.286131,36.6246756 C31.5022048,36.3950699 31.742458,36.1882342 32.0029286,36.0075793 C32.1198969,35.9237761 32.1814763,35.8310847 32.1602982,35.690143 C32.0993704,35.2850942 32.1508495,34.8771885 32.1277165,34.4715048 C32.0951348,33.9280538 32.1039319,33.3839679 32.0951348,32.8401994 C32.0925283,32.7097331 32.0602724,32.5792667 32.0684178,32.4468958 C32.0720018,32.3869003 32.0381168,32.3545218 31.9928282,32.3176992 C31.8015736,32.1627902 31.6041284,32.0123254 31.4298163,31.8415447 C31.0805537,31.5023963 30.7717804,31.1258518 30.509383,30.7190897 C30.0151185,29.9375614 29.6824593,29.1033387 29.5492001,28.1872174 C29.4168731,27.3113284 29.5528838,26.4168707 29.9401806,25.6159829 C30.2461228,24.9703174 30.776553,24.5684429 31.4457813,24.3230646 C31.5822987,24.2732271 31.7637788,24.2627517 31.8452331,24.1687906 C31.934507,24.0656238 31.8709726,23.8830979 31.8716243,23.737712 C31.8716243,23.2996498 31.8569625,22.8615877 31.8462105,22.423843 C31.8335037,21.8915022 32.0498462,21.4550272 32.54183,21.1858412 C33.4078518,20.7096867 34.5560313,21.1899679 34.6798418,22.1543395 C34.7147042,22.4254301 34.6824483,22.6895372 34.677561,22.9574535 C34.6606185,23.8288162 34.6697414,24.7014488 34.6329241,25.5721767 C34.6123976,26.0527753 34.6391146,26.5343263 34.6026231,27.0130203 C34.5651541,27.5094908 34.6068587,28.0069135 34.5700414,28.5011619 C34.5342015,28.9716026 34.5602669,29.441091 34.5416953,29.9105793 C34.5345273,30.0896134 34.5227979,30.268965 34.5068329,30.4464119 C34.4895646,30.6403655 34.5882872,30.7470241 34.7212205,30.857492 C35.5168659,31.5199816 36.1254922,32.3040494 36.38582,33.3122273 C36.5989044,34.1375618 36.5128887,34.9346445 36.1349409,35.6980789 C35.8436604,36.2862885 35.3855616,36.7367306 34.8463343,37.1157496 C34.7280627,37.198918 34.6101169,37.2846258 34.4843515,37.356049 C34.376506,37.4173142 34.3452276,37.4960384 34.3475083,37.615077 C34.3546763,37.969336 34.38009,38.3274042 34.3370822,38.6769016 C34.3045005,38.9514841 34.413975,39.094013 34.6006682,39.2765389 C35.1711739,39.8336397 35.5181691,40.5034304 35.5588963,41.3109885 C35.6084205,42.2896447 35.2617511,43.1251372 34.6391146,43.8707952 C34.5296401,44.0018964 34.421143,44.1333151 34.2748511,44.2288634 C34.2246753,44.2606071 34.2210913,44.3142538 34.216204,44.3691703 C34.1803642,44.7694575 34.1836223,45.1710145 34.1872063,45.5719366 C34.1920936,46.0001583 34.1347498,46.4258404 34.1520181,46.8543795 C34.1552762,46.9378653 34.1634217,47.0045269 34.246505,47.0556341 C35.1262112,47.5990852 35.2001716,48.5882168 34.8417728,49.365301 C34.6788643,49.714481 34.4452535,50.0065225 34.0950001,50.1966668 C34.0528649,50.2207086 34.0248466,50.262714 34.0194105,50.3099916 C33.9814905,50.4593511 33.9130034,50.5997121 33.8180556,50.7226589 C33.6933547,50.8971985 33.4885737,51.0008817 33.2703,51 C33.0520264,50.9991069 32.8481406,50.8937623 32.7249392,50.7182148 C32.5411784,50.4683924 32.4750375,50.1826996 32.461679,49.883992 C32.4499496,49.662104 32.4577692,49.4449776 32.4577692,49.1453176 Z" id="Path" fill="#000000"></path>
                <path d="M33.5,26 C33.4730047,27.2033609 33.4477624,28.3558575 33.4204165,29.5089978 C33.3904996,30.7795341 33.3596479,32.0501776 33.3278612,33.3209284 C33.3183953,33.712069 33.3054236,34.1035315 33.2987624,34.494994 C33.2967256,34.5697191 33.2695366,34.6420312 33.2209318,34.7019927 C32.9162707,35.1101954 32.5173014,35.4305122 32.0923885,35.7263626 C31.977045,35.8068442 31.8602992,35.8847503 31.6916662,36 C31.6916662,35.6754982 31.6969251,35.3947784 31.6916662,35.1143805 C31.6524004,33.409029 31.612667,31.7038921 31.5724663,29.9989698 C31.5503792,29.0499308 31.5289933,28.099604 31.5002451,27.1521746 C31.4963886,27.0272672 31.5374075,26.9783344 31.6681768,26.9454979 C31.9542568,26.8730644 32.2364803,26.7845347 32.5166002,26.6950391 C32.907506,26.5678782 33.2591459,26.3869555 33.5,26 Z" id="Path" fill="#AB0B0B"></path>
                <path d="M31.3532294,40 C30.9359553,39.6576162 30.7212805,39.2330112 30.5944883,38.7645344 C30.5609453,38.6461114 30.5468573,38.5237 30.5237127,38.4031293 C30.4257673,37.8953827 30.6377587,37.4990029 31.0392675,37.1609143 C31.4682816,36.7995091 31.9559958,36.5092806 32.4145277,36.1846909 C32.8730595,35.8601012 33.3154908,35.5296825 33.6418635,35.0851358 C33.9262959,34.7024806 34.0761005,34.2494693 34.071213,33.7867771 C34.071213,33.2449762 34.071213,32.7029708 34.071213,32.1607609 C34.071213,32.112594 34.0551124,32.0610523 34.0943576,32 C34.5495352,32.4068109 34.9329309,32.8516644 35.1828257,33.3830342 C35.8493237,34.7915324 35.4511691,36.1902132 34.1225337,37.1259396 C33.6576287,37.4535972 33.1471053,37.7202025 32.6711311,38.0337475 C31.960021,38.5046786 31.4820342,39.1041571 31.3757031,39.9196196 C31.3697533,39.946754 31.3622518,39.9735843 31.3532294,40 L31.3532294,40 Z" id="Path" fill="#FFFFFF"></path>
                <path d="M31.4433373,32 C31.1651555,31.7622565 30.9148278,31.4968586 30.6966818,31.2083943 C29.8835186,30.1417576 29.4264828,28.9644262 29.5096994,27.634231 C29.5499971,26.9858771 29.7337943,26.3672898 30.1665858,25.8494749 C30.7379624,25.1673234 31.9321526,24.8312088 32.8114959,25.0839149 C33.0175715,25.1431381 33.2046449,25.2389493 33.3409365,25.4045261 C33.5991044,25.7145949 33.537511,26.1176844 33.1961266,26.3396937 C32.9592544,26.4931777 32.6889644,26.5759661 32.4183468,26.6562739 C32.059926,26.7626275 31.6956079,26.8534777 31.3512749,26.9989 C31.093107,27.1077341 30.8598386,27.2506759 30.7009409,27.4773362 C30.4748802,27.7973272 30.5001073,28.1399532 30.6095337,28.4890907 C30.7271508,28.8655143 30.9391237,29.1985282 31.1691158,29.5172789 C31.3761331,29.7957212 31.4750934,30.1333266 31.4492345,30.4729111 C31.4240075,30.9212706 31.4433373,31.3721106 31.4433373,31.8214004 L31.4433373,32 Z" id="Path" fill="#FFFFFF"></path>
                <path d="M32.1405873,47 C31.7124054,46.4947636 31.4424077,45.9438274 31.5104681,45.3097429 C31.6028357,44.447477 32.1873321,43.8321168 32.9494585,43.3145033 C33.1431687,43.1827991 33.3608123,43.0771184 33.5522787,42.9416058 C34.2123146,42.4703269 34.5122289,41.8410029 34.6337653,41.1345605 C34.6977121,40.7629324 34.7122965,40.3890828 34.7194017,40 C34.805786,40.0285624 34.8390682,40.0869565 34.8787078,40.1345605 C35.6011946,40.9987306 35.6685071,41.9247858 35.2104085,42.8873374 C34.8667411,43.6096477 34.3129093,44.181847 33.4849663,44.5522056 C32.6570233,44.9225643 32.2740903,45.5398286 32.2000466,46.3138686 C32.1783571,46.5404633 32.1574154,46.7670581 32.1405873,47 Z" id="Path" fill="#FFFFFF"></path>
                <path d="M33.4403088,25 C33.0408998,24.2017274 32.3900469,24.0579592 31.678912,24.0770085 C31.5541571,24.0806027 31.5286904,24.0550839 31.5277233,23.9217389 C31.5235326,23.3107243 31.5006447,22.6997097 31.5,22.0886951 C31.5,21.4341906 31.9116588,20.9974949 32.506098,21 C33.092478,21.0028862 33.5054263,21.4385037 33.4999461,22.084382 C33.4941435,23.0303764 33.4709333,23.9763708 33.4544928,24.9238029 C33.4512472,24.9495171 33.4465092,24.9749696 33.4403088,25 Z" id="Path" fill="#AB0B0B"></path>
                <path d="M33.5,38 C33.4769697,39.2555205 33.456911,40.4741325 33.4299185,41.6927445 C33.425461,41.8968454 33.3296252,42.066877 33.2486477,42.2369085 C33.0879307,42.5757098 32.8395501,42.792429 32.5837402,43 C32.5569954,42.9930599 32.5634339,42.962776 32.5629387,42.9388013 C32.541972,41.7724501 32.5210053,40.6063091 32.5000387,39.4403785 C32.4992002,39.3666444 32.5120107,39.2936958 32.537432,39.2274448 C32.7390091,38.681388 33.0968457,38.3362776 33.5,38 Z" id="Path" fill="#AB0B0B"></path>
                <path d="M33.4973205,45 C33.4973205,45.6462493 33.5033494,46.2852053 33.4973205,46.9241614 C33.4899519,47.5317245 33.4477496,48.1392877 33.4584677,48.7462166 C33.467511,49.2504053 33.326502,49.7143222 33.142286,50.1731656 C33.0679298,50.3599373 32.9922337,50.5460749 32.9101739,50.7496529 L33.3067407,50.7496529 C33.2330543,50.8787125 33.1653968,50.9820871 33.0240529,50.9982592 C32.882709,51.0144312 32.7999792,50.915179 32.7366759,50.8146584 C32.6522646,50.682949 32.6049805,50.5329292 32.5993513,50.3789633 C32.5889682,50.0517164 32.5852839,49.7241523 32.5775803,49.395954 C32.5537997,48.3714047 32.5387275,47.3465383 32.5008795,46.322306 C32.487147,45.9417863 32.6348547,45.6459322 32.9004607,45.3855933 C33.0746285,45.2153107 33.2909986,45.0960812 33.4973205,45 Z" id="Path" fill="#AB0B0B"></path>
                <path d="M32.4307449,27 C32.4840564,27.670834 32.4098189,28.3355694 32.5,29 C32.2812734,28.8917518 32.1746504,28.7402043 32.0456067,28.6020735 C31.791007,28.3303857 31.5433826,28.0550389 31.5040218,27.7302943 C31.4701416,27.4522031 31.6505038,27.2500381 32.0381332,27.1122122 C32.1442579,27.0744016 32.2369302,27.0213447 32.4307449,27 Z" id="Path" fill="#000000"></path>
                <path d="M34.0781424,48 C34.9769053,48.6875607 34.275326,49.8161143 33.5,50 C33.8398883,49.3586271 34.0349626,48.683796 34.0781424,48 L34.0781424,48 Z" id="Path" fill="#FFFFFF"></path>
                <path d="M33.0187531,24.0032669 C33.145537,23.98789 33.2725066,24.0269252 33.3907676,24.1176381 C33.5221139,24.2343594 33.532926,24.4012159 33.4344162,24.6048906 C33.1785311,25.1313114 32.829342,25.1320947 32.5698529,24.6048906 C32.4617324,24.3847653 32.4781507,24.2265257 32.6259153,24.106671 C32.7516554,24.0032669 32.8854045,23.9985667 33.0187531,24.0032669 Z" id="Path" fill="#000000"></path>
            </g>
        </g>
    </g>
</svg>