<?xml version="1.0" encoding="UTF-8"?>
<svg width="60px" height="57px" viewBox="0 0 60 57" version="1.1" xmlns="http://www.w3.org/2000/svg" xmlns:xlink="http://www.w3.org/1999/xlink">
    <!-- Generator: Sketch 62 (91390) - https://sketch.com -->
    <title>stethoscope</title>
    <desc>Created with Sketch.</desc>
    <g id="Website" stroke="none" stroke-width="1" fill="none" fill-rule="evenodd">
        <g id="Services" transform="translate(-762.000000, -2544.000000)" fill="#000000" fill-rule="nonzero">
            <g id="stethoscope" transform="translate(762.000000, 2544.000000)">
                <path d="M59.803659,31.9325699 C59.3612058,28.8742336 56.9530977,26.4716463 53.8877339,26.0302074 L53.8877339,24.2201463 C53.8877339,19.2260502 50.0826611,15.1598843 45.4054054,15.1598843 C40.862869,15.1598843 37.0597921,19.1025917 36.9230769,23.9493341 L36.9809563,23.9493341 L36.9230769,23.9592904 L36.9230769,43.5802336 C36.9230769,49.8527227 32.222869,54.9463821 26.4449064,54.9463821 C20.6669439,54.9463821 15.966736,49.8457533 15.966736,43.5802336 L15.966736,41.8806878 C17.4137214,41.8806878 18.960499,40.8342773 18.960499,37.898155 L18.960499,35.3941376 C25.3651559,33.7603035 29.9376299,28.273369 29.9376299,22.0526528 L29.9376299,19.9767576 L27.9417879,19.9767576 L27.8998753,7.0185917 C27.8854054,4.6199869 26.1602495,2.57196943 23.7944283,2.14496725 C23.2841164,0.585183406 21.6029938,-0.266580786 20.039501,0.24268559 C18.4761331,0.751827511 17.6224116,2.42909607 18.1328482,3.98900437 C18.6431601,5.54878821 20.3242827,6.4005524 21.8877755,5.89128603 C22.7249064,5.61860699 23.3981289,4.99023799 23.7265696,4.17506332 C25.0050312,4.53797162 25.8906861,5.6983821 25.9010395,7.0245655 L25.9459459,19.9767576 L23.950104,19.9767576 L23.950104,22.0815262 C23.8705198,25.5447118 21.543368,28.554262 18.2060707,29.5099454 C16.4204158,30.0752162 14.5031601,30.0752162 12.7175052,29.5099454 C9.38407484,28.5510262 7.06216216,25.5419738 6.98544699,22.0815262 L6.98544699,19.9767576 L3.99168399,19.9767576 L3.99168399,7.0335262 C3.99742204,5.68780349 4.90453222,4.5119607 6.20706861,4.16212009 C6.81442827,5.70472926 8.56016632,6.46389956 10.1063202,5.85793231 C11.652474,5.25196507 12.4133888,3.5101048 11.8060291,1.96762009 C11.1986694,0.425135371 9.45280665,-0.334159389 7.90677755,0.27180786 C7.06902287,0.600242358 6.42261954,1.28561135 6.14519751,2.13998908 C3.75355509,2.54770087 2.00245322,4.61276856 1.995842,7.0335262 L1.995842,19.9767576 L0,19.9767576 L0,22.0476747 C0,28.2753603 4.57546778,33.764286 10.977131,35.3941376 L10.977131,37.898155 C10.977131,40.8342773 12.5239085,41.8806878 13.970894,41.8806878 L13.970894,43.5802336 C13.970894,50.9479192 19.566237,56.9376485 26.4449064,56.9376485 C33.3235759,56.9376485 38.9189189,50.9409498 38.9189189,43.5802336 L38.9189189,24.0070808 C39.018711,20.2286528 41.9306445,17.1541376 45.4054054,17.1541376 C48.9819543,17.1541376 51.8918919,20.3242336 51.8918919,24.2231332 L51.8918919,26.0302074 C48.0734719,26.5800459 45.4248649,30.1141703 45.9759667,33.9238362 C46.5270686,37.7335022 50.0693139,40.3760371 53.8877339,39.8261987 C57.7061538,39.2763603 60.3547609,35.7421114 59.803659,31.9325699 Z M20.956341,4.04662664 C20.4052391,4.04662664 19.95842,3.60083188 19.95842,3.05099345 C19.95842,2.50115502 20.4052391,2.05536026 20.956341,2.05536026 C21.5074428,2.05536026 21.954262,2.50115502 21.954262,3.05099345 C21.954262,3.60083188 21.5074428,4.04662664 20.956341,4.04662664 Z M8.98128898,2.05536026 C9.53239085,2.05536026 9.97920998,2.50115502 9.97920998,3.05099345 C9.97920998,3.60083188 9.53239085,4.04662664 8.98128898,4.04662664 C8.43018711,4.04662664 7.98336798,3.60083188 7.98336798,3.05099345 C7.98336798,2.50115502 8.43018711,2.05536026 8.98128898,2.05536026 Z M1.995842,22.0476747 L1.995842,21.968024 L4.98960499,21.968024 L4.98960499,22.0815262 C5.06444906,26.4089214 7.95006237,30.1854825 12.1127651,31.4036397 C14.2940956,32.0927424 16.6354678,32.0927424 18.8167983,31.4036397 C22.9814969,30.1871004 25.8697297,26.4104148 25.9459459,22.0815262 L25.9459459,21.968024 L27.9417879,21.968024 L27.9417879,22.0476747 C27.9417879,27.5863821 23.6627027,32.4600066 17.7629938,33.6388362 C16.3776299,33.9156223 14.9585863,33.9850677 13.5527651,33.8449323 C13.0899792,33.8001288 12.6299376,33.7306834 12.1746362,33.636845 C6.27492723,32.4600066 1.995842,27.5863821 1.995842,22.0476747 Z M13.970894,39.8894214 C13.0727651,39.8894214 12.972973,38.4955349 12.972973,37.898155 L12.972973,35.7854214 C13.0528067,35.7953777 13.1346362,35.7993603 13.2154678,35.8073253 C13.3152599,35.8182773 13.415052,35.8262424 13.5148441,35.8352031 C13.9868607,35.8770197 14.462869,35.9048974 14.942869,35.905893 L14.9927651,35.905893 C15.4717672,35.905893 15.9467775,35.8770197 16.4158004,35.8352031 C16.5155925,35.8262424 16.6213721,35.8182773 16.724158,35.8073253 C16.8029938,35.7983646 16.8848233,35.7953777 16.963659,35.7854214 L16.963659,37.898155 C16.963659,38.4955349 16.8638669,39.8894214 15.965738,39.8894214 L13.970894,39.8894214 Z M52.8898129,37.898155 C50.1341788,37.898155 47.9002079,35.6693057 47.9002079,32.9199891 C47.9002079,30.1706725 50.1341788,27.9418231 52.8898129,27.9418231 C55.645447,27.9418231 57.8794179,30.1706725 57.8794179,32.9199891 C57.8761746,35.6680611 55.6440748,37.8949192 52.8898129,37.898155 Z" id="Shape"></path>
                <path d="M52.8898129,29.9330895 C51.2363825,29.9330895 49.8960499,31.2703493 49.8960499,32.9199891 C49.8960499,34.5696288 51.2363825,35.9068886 52.8898129,35.9068886 C54.5432432,35.9068886 55.8835759,34.5696288 55.8835759,32.9199891 C55.8835759,31.2703493 54.5432432,29.9330895 52.8898129,29.9330895 Z M52.8898129,33.9156223 C52.338711,33.9156223 51.8918919,33.4698275 51.8918919,32.9199891 C51.8918919,32.3701507 52.338711,31.9243559 52.8898129,31.9243559 C53.4409148,31.9243559 53.8877339,32.3701507 53.8877339,32.9199891 C53.8877339,33.4698275 53.4409148,33.9156223 52.8898129,33.9156223 Z" id="Shape"></path>
            </g>
        </g>
    </g>
</svg>