<?xml version="1.0" encoding="UTF-8"?>
<svg width="42px" height="60px" viewBox="0 0 42 60" version="1.1" xmlns="http://www.w3.org/2000/svg" xmlns:xlink="http://www.w3.org/1999/xlink">
    <!-- Generator: Sketch 62 (91390) - https://sketch.com -->
    <title>director-chair</title>
    <desc>Created with Sketch.</desc>
    <g id="Website" stroke="none" stroke-width="1" fill="none" fill-rule="evenodd">
        <g id="Set-Medic-LA" transform="translate(-534.000000, -1143.000000)" fill="#000000" fill-rule="nonzero">
            <g id="director-chair" transform="translate(534.000000, 1143.000000)">
                <path d="M40.8676517,30.1369922 L40.3343933,30.1369922 L40.3343933,1.03207031 C40.3343933,0.730195313 40.2013146,0.4434375 39.9701966,0.247382813 C39.7391966,0.051328125 39.4331629,-0.034453125 39.1330281,0.0127734375 C27.1010899,1.90570313 14.899618,1.90570313 2.8675618,0.0127734375 C2.56695506,-0.0345703125 2.26139326,0.0512109375 2.03039326,0.247382813 C1.7991573,0.4434375 1.66607865,0.730195313 1.66607865,1.03207031 L1.66607865,30.136875 L1.13282022,30.136875 C0.559095506,30.136875 0.0939101124,30.5989453 0.0939101124,31.1688281 L0.0939101124,33.1016016 C0.0939101124,34.9532812 1.61074719,36.4599609 3.47491011,36.4599609 L5.27418539,36.4599609 L16.4996292,47.6101172 L5.7996573,58.2384375 C5.50258989,58.5335156 5.41363483,58.9774219 5.5744382,59.3629688 C5.73524157,59.7486328 6.11406742,60 6.53418539,60 L12.5972865,60 C12.872764,60 13.1371517,59.89125 13.3318146,59.6976563 L21,52.0805859 L28.6683034,59.6976562 C28.8630843,59.89125 29.1273539,60 29.4028315,60 L35.4659326,60 C35.8861685,60 36.2648764,59.7485156 36.4256798,59.3628516 C36.5864831,58.9771875 36.4975281,58.5333984 36.2004607,58.2383203 L25.5006067,47.6101172 L36.7259326,36.4599609 L38.5252079,36.4599609 C40.3894888,36.4599609 41.9062081,34.9532813 41.9062081,33.1016016 L41.9062081,31.1688281 C41.9062081,30.5989453 41.4413764,30.1369922 40.8676517,30.1369922 Z M3.7437809,2.2340625 C15.2017584,3.91734375 26.7985955,3.91734375 38.256573,2.2340625 L38.256573,17.3261719 C26.801427,19.0395703 15.1990449,19.0395703 3.7437809,17.3261719 L3.7437809,2.2340625 Z M38.256573,19.4128125 L38.256573,30.1371094 L36.5467247,30.1371094 L36.5467247,30.1369922 L36.5467247,19.6502344 C37.1170281,19.5747656 37.6869775,19.4964844 38.256573,19.4128125 Z M34.4687865,19.9064062 L34.4687865,30.1369922 L7.53144944,30.1369922 L7.53144944,19.9064062 C12.0098764,20.4182812 16.5049382,20.6753906 21,20.6753906 C25.4952978,20.6753906 29.9903596,20.4182812 34.4687865,19.9064062 Z M3.7437809,19.4126953 C4.3133764,19.4963672 4.88332584,19.5747656 5.45362921,19.65 L5.45362921,30.1367578 L3.7437809,30.1367578 L3.7437809,19.4126953 Z M8.21241573,36.4599609 L11.3372865,36.4599609 L19.5310618,44.59875 L17.9686854,46.1506641 L8.21241573,36.4599609 Z M14.2756348,36.4599609 L27.7247191,36.4599609 L21.000236,43.1394141 L14.2756348,36.4599609 Z M32.9582022,57.9362109 L29.8333315,57.9362109 L22.4692921,50.6214844 L24.0316685,49.0695703 L32.9582022,57.9362109 Z M12.1670225,57.9362109 L9.04215169,57.9362109 L30.6631854,36.4599609 L33.7880562,36.4599609 L12.1670225,57.9362109 Z M39.8288596,33.1017187 C39.8288596,33.8155078 39.2440449,34.3961719 38.5255618,34.3961719 L3.47479213,34.3961719 C2.75619101,34.3961719 2.17161236,33.8153906 2.17161236,33.1017187 L2.17161236,32.2008984 L39.8288596,32.2008984 L39.8288596,33.1017187 L39.8288596,33.1017187 Z" id="Shape"></path>
            </g>
        </g>
    </g>
</svg>