<?xml version="1.0" encoding="UTF-8"?>
<svg width="50px" height="58px" viewBox="0 0 50 58" version="1.1" xmlns="http://www.w3.org/2000/svg" xmlns:xlink="http://www.w3.org/1999/xlink">
    <!-- Generator: Sketch 62 (91390) - https://sketch.com -->
    <title>icon-set-medic</title>
    <desc>Created with Sketch.</desc>
    <g id="Website" stroke="none" stroke-width="1" fill="none" fill-rule="evenodd">
        <g id="Set-Medic-LA" transform="translate(-841.000000, -923.000000)" fill="#191925" fill-rule="nonzero">
            <g id="icon-set-medic" transform="translate(841.000000, 923.000000)">
                <path d="M41.7704792,37.8574932 L10.3946235,37.8574932 C9.79294163,37.8574932 9.3051589,38.3441053 9.3051589,38.9443431 C9.3051589,39.5445809 9.79294163,40.031193 10.3946235,40.031193 L41.7704792,40.031193 C42.372161,40.031193 42.8599438,39.5445809 42.8599438,38.9443431 C42.8599438,38.3441053 42.372161,37.8574932 41.7704792,37.8574932 Z" id="Path"></path>
                <path d="M41.7704792,46.4071228 L10.3946235,46.4071228 C9.79294163,46.4071228 9.3051589,46.8937349 9.3051589,47.4939727 C9.3051589,48.0942105 9.79294163,48.5808226 10.3946235,48.5808226 L41.7704792,48.5808226 C42.372161,48.5808226 42.8599438,48.0942105 42.8599438,47.4939727 C42.8599438,46.8937349 42.372161,46.4071228 41.7704792,46.4071228 Z" id="Path"></path>
                <path d="M48.7723831,20.9029513 L10.6025885,20.9029513 L47.0683168,9.65253412 C47.6432522,9.47514228 47.965003,8.86653801 47.7871844,8.29309549 L45.4888027,0.87859259 C45.4035767,0.603290451 45.2119316,0.372873294 44.9562537,0.238557505 C44.7006891,0.104128655 44.4020581,0.0762027293 44.1260937,0.161450292 L0.772133826,13.5371774 C0.197198423,13.7145692 -0.124552337,14.3231735 0.0532662405,14.896616 L2.30314158,22.1538519 L2.30314158,56.913037 C2.30314158,57.5132748 2.79092434,57.999887 3.39260619,57.999887 L48.7724965,57.999887 C49.3741783,57.999887 49.8619611,57.5132748 49.8619611,56.913037 L49.8619611,21.9896881 C49.8619611,21.3894503 49.374065,20.9029513 48.7723831,20.9029513 Z M42.6427988,23.076538 L37.0422503,28.6636452 L30.0092933,28.6636452 L35.6098418,23.076538 L42.6427988,23.076538 Z M32.5284465,23.076538 L26.9277846,28.6636452 L19.8948275,28.6636452 L25.495376,23.076538 L32.5284465,23.076538 Z M22.4142073,23.076538 L16.8136588,28.6636452 L9.78058843,28.6636452 L15.381137,23.076538 L22.4142073,23.076538 Z M12.2998549,23.076538 L6.6993064,28.6636452 L4.48195748,28.6636452 L4.48195748,23.076538 L12.2998549,23.076538 Z M43.7292035,2.55946199 L45.3838569,7.89704481 L43.2656739,8.55053412 L36.2603699,4.86363353 L43.7292035,2.55946199 Z M33.3165601,5.77173489 L40.3218641,9.45863548 L33.6029512,11.5315985 L26.5976472,7.84469784 L33.3165601,5.77173489 Z M23.6538374,8.75302534 L30.6591414,12.4399259 L23.9400018,14.5127758 L16.9348112,10.8258752 L23.6538374,8.75302534 Z M13.9908881,11.7340897 L20.9960787,15.4209902 L14.2771658,17.4939532 L7.27208849,13.8070527 L13.9908881,11.7340897 Z M2.45670701,15.2926667 L4.32816537,14.7153801 L11.3334694,18.4022807 L4.11147377,20.6303625 L2.45670701,15.2926667 Z M47.6829185,55.8261871 L4.48195748,55.8261871 L4.48195748,30.8373451 L47.6829185,30.8373451 L47.6829185,55.8261871 Z M47.6829185,28.6636452 L40.123419,28.6636452 L45.7239676,23.076538 L47.6829185,23.076538 L47.6829185,28.6636452 L47.6829185,28.6636452 Z" id="Shape"></path>
            </g>
        </g>
    </g>
</svg>