<?xml version="1.0" encoding="UTF-8"?>
<svg width="60px" height="51px" viewBox="0 0 60 51" version="1.1" xmlns="http://www.w3.org/2000/svg" xmlns:xlink="http://www.w3.org/1999/xlink">
    <!-- Generator: Sketch 62 (91390) - https://sketch.com -->
    <title>icon-healthcare-advisor</title>
    <desc>Created with Sketch.</desc>
    <g id="Website" stroke="none" stroke-width="1" fill="none" fill-rule="evenodd">
        <g id="Set-Medic-LA" transform="translate(-1144.000000, -1141.000000)" fill="#191925" fill-rule="nonzero">
            <g id="icon-healthcare-advisor" transform="translate(1144.000000, 1141.000000)">
                <path d="M60,17.1602769 C60,18.9579281 59.7182052,20.7383468 59.1546156,22.4569804 C56.3736795,34.950173 32.3407894,50.1627493 31.3200193,50.8003544 C31.1072012,50.9356931 30.8641006,51 30.6222618,51 C30.3787406,51 30.1369018,50.9361134 29.9228219,50.8003544 C29.435359,50.4956321 17.9091107,43.2167628 9.73453806,34.5924922 C9.23908398,34.0679495 9.25969284,33.2357425 9.78711174,32.7423026 C10.3145306,32.2480221 11.1430915,32.2686171 11.6414897,32.7956816 C18.4651297,39.9976348 27.9872702,46.4136146 30.6226824,48.1364513 C34.5997743,45.5360145 54.3018569,32.197165 56.6298184,21.7664167 C57.137049,20.1885858 57.3776261,18.6838882 57.3776261,17.1632191 C57.3776261,11.8719796 54.4940662,6.99264054 49.8528638,4.42204549 C47.7065969,3.24476677 45.2789558,2.61893028 42.8307058,2.61893028 C38.4872807,2.61893028 34.4050415,4.53468766 31.6287319,7.8811686 C31.3776401,8.18042688 31.0100451,8.35569474 30.6197383,8.35569474 L30.6197383,8.35569474 C30.231955,8.35569474 29.8593129,8.1854706 29.6111653,7.8811686 C26.8285468,4.53720949 22.7421017,2.61893028 18.3999383,2.61893028 C15.9554736,2.61893028 13.5265707,3.24224493 11.3735744,4.42204549 C6.734475,6.98717652 3.85175631,11.8715593 3.85175631,17.1602769 C3.85175631,18.678004 4.09401572,20.1827015 4.57138451,21.6390638 C4.87757348,23.0016977 5.48826907,24.3954343 6.31430634,25.8538981 L15.0924245,25.8538981 L17.9019607,21.1536097 C18.1324436,20.766087 18.5488269,20.5252514 19.0030633,20.5176859 C19.4089319,20.4651475 19.8791507,20.7324625 20.1272983,21.1153618 L24.7243388,28.1903824 L29.8462747,14.3559914 C30.0359604,13.8415362 30.5263675,13.498566 31.0743952,13.498566 L31.0769188,13.498566 C31.6241054,13.498566 32.1157742,13.8390143 32.3050394,14.3534696 L36.5946291,25.8534778 L44.1883679,25.8534778 C44.9134637,25.8534778 45.4993446,26.4419071 45.4993446,27.1639937 C45.4993446,27.8907038 44.9130432,28.4740894 44.1883679,28.4740894 L35.680268,28.4740894 C35.1322403,28.4740894 34.643095,28.1361628 34.4483621,27.6246497 L31.0819658,18.5775507 L26.2826219,31.5561974 C26.1122833,32.0197956 25.6895911,32.3501566 25.1966605,32.4010137 C25.1466104,32.4064777 25.0995044,32.411101 25.0519778,32.411101 C24.6116209,32.411101 24.1952375,32.1858167 23.9508752,31.8121642 L19.0758253,24.3084308 L16.9640466,27.840267 C16.7280961,28.2345146 16.3007774,28.4799736 15.8398116,28.4799736 L1.31139727,28.4799736 C0.587563176,28.4803939 0,27.8919647 0,27.169878 C0,26.443168 0.587563176,25.8597824 1.31139727,25.8597824 L3.33064624,25.8597824 C2.73509186,24.63627 2.29221139,23.4526867 2.04490491,22.3342508 C1.51622423,20.7408686 1.22938237,18.9583484 1.22938237,17.1627988 C1.22938237,10.9208258 4.63194936,5.16094445 10.1071802,2.1280122 C12.6500627,0.733434978 15.5146961,0 18.3995177,0 C23.0222141,0 27.3963423,1.84010219 30.6167941,5.09453602 C33.8359842,1.84010219 38.2050653,0 42.8277617,0 C45.7193128,0 48.5772167,0.733434978 51.1205198,2.1280122 C56.606686,5.15716169 60,10.9208258 60,17.1602769 Z" id="Path"></path>
            </g>
        </g>
    </g>
</svg>