<?xml version="1.0" encoding="UTF-8"?>
<svg width="14px" height="10px" viewBox="0 0 14 10" version="1.1" xmlns="http://www.w3.org/2000/svg" xmlns:xlink="http://www.w3.org/1999/xlink">
    <!-- Generator: Sketch 62 (91390) - https://sketch.com -->
    <title>Path Copy</title>
    <desc>Created with Sketch.</desc>
    <g id="Website" stroke="none" stroke-width="1" fill="none" fill-rule="evenodd">
        <g id="Set-Medic-LA" transform="translate(-912.000000, -1995.000000)" fill="#FFFFFF" fill-rule="nonzero">
            <path d="M921.427437,1995.15039 C921.23671,1994.94987 920.919276,1994.94987 920.72188,1995.15039 C920.531153,1995.34414 920.531153,1995.66661 920.72188,1995.8599 L924.29946,1999.49417 L912.493935,1999.49417 C912.218736,1999.49463 912,1999.71683 912,1999.99639 C912,2000.27595 912.218736,2000.50537 912.493935,2000.50537 L924.29946,2000.50537 L920.72188,2004.13287 C920.531153,2004.33339 920.531153,2004.65631 920.72188,2004.84961 C920.919276,2005.05013 921.237155,2005.05013 921.427437,2004.84961 L925.851953,2000.35498 C926.049349,2000.16123 926.049349,1999.83877 925.851953,1999.64547 L921.427437,1995.15039 Z" id="Path-Copy"></path>
        </g>
    </g>
</svg>