<?xml version="1.0" encoding="UTF-8"?>
<svg width="60px" height="60px" viewBox="0 0 60 60" version="1.1" xmlns="http://www.w3.org/2000/svg" xmlns:xlink="http://www.w3.org/1999/xlink">
    <!-- Generator: Sketch 62 (91390) - https://sketch.com -->
    <title>icon-lifeguard</title>
    <desc>Created with Sketch.</desc>
    <g id="Website" stroke="none" stroke-width="1" fill="none" fill-rule="evenodd">
        <g id="Set-Medic-LA" transform="translate(-838.000000, -1243.000000)" fill="#191925" fill-rule="nonzero">
            <g id="icon-lifeguard" transform="translate(838.000000, 1243.000000)">
                <path d="M29.9996953,59.9998923 C42.1331358,59.9998923 53.0722513,52.6903532 57.7157744,41.4804114 C62.3587601,30.2699322 59.7922775,17.366545 51.2122632,8.78703104 C39.4968095,-2.92901035 20.5020438,-2.92901035 8.78659014,8.78703104 C-2.92886338,20.502535 -2.92886338,39.4973826 8.78659014,51.2128866 C14.4004017,56.8573462 22.0386024,60.0212739 29.9996953,59.9998923 Z M6.60747069,45.005378 L14.8925304,36.7761578 C16.4758304,40.2833948 19.2244436,43.1346368 22.6714926,44.8452744 L14.4702453,53.046557 C11.3326571,50.9249149 8.65818542,48.1891842 6.60747069,45.005378 Z M29.9996953,15.6424759 C37.92909,15.6424759 44.3568478,22.0702614 44.3568478,29.9996903 C44.3568478,37.929119 37.92909,44.3574417 29.9996953,44.3574417 C22.0703007,44.3574417 15.6420056,37.929119 15.6420056,29.9996903 C15.6511389,22.0740223 22.0740614,15.6516093 29.9996953,15.6424759 Z M16.3941671,54.2344401 L24.881236,45.7473348 C28.1037109,46.7939184 31.569564,46.8277659 34.8113803,45.8435045 L43.346265,54.378426 C34.9408595,58.9897334 24.7501448,58.9349329 16.3941671,54.2344401 Z M45.2857673,53.2066606 L37.0560454,44.9769032 C40.5310317,43.3296622 43.3290728,40.5316092 44.9763065,37.0566077 L53.2060287,45.2863653 C51.1257647,48.4325632 48.4319516,51.1263876 45.2857673,53.2066606 Z M54.3783261,43.3468546 L45.8439786,34.8119332 C46.8276986,31.5695656 46.7943885,28.1036976 45.7478094,24.881746 L54.2338036,16.3946407 C58.9348135,24.7501171 58.9896138,34.9408757 54.3783261,43.3468546 L54.3783261,43.3468546 Z M53.0459256,14.4701733 L44.8446783,22.671456 C43.134048,19.2249294 40.2828184,16.4763043 36.7755965,14.8929974 L45.0047813,6.60790214 C48.1891109,8.65862571 50.9242928,11.3331089 53.0459256,14.4701733 Z M43.0454004,5.45816449 L34.4976214,14.0629299 C31.4502926,13.2043874 28.220296,13.2360858 25.1901594,14.1548013 L16.6918083,5.5989267 C24.891981,1.11871074 34.7974116,1.06552205 43.0454004,5.45816449 Z M14.7512314,6.7680057 L22.9481806,15.0203281 C19.4694334,16.6681063 16.6681689,19.469383 15.0203978,22.9481451 L6.76811094,14.7511606 C8.86019453,11.5759505 11.5760351,8.86009847 14.7512314,6.7680057 Z M5.59903695,16.6917458 L14.1548747,25.1901336 C13.2367003,28.2202832 13.2044649,31.4502937 14.0630036,34.498173 L5.45773799,43.0454514 C1.06511445,34.7974271 1.11830306,24.8924911 5.59903695,16.6917458 Z" id="Shape"></path>
            </g>
        </g>
    </g>
</svg>