<?xml version="1.0" encoding="UTF-8"?>
<svg width="60px" height="55px" viewBox="0 0 60 55" version="1.1" xmlns="http://www.w3.org/2000/svg" xmlns:xlink="http://www.w3.org/1999/xlink">
    <!-- Generator: Sketch 62 (91390) - https://sketch.com -->
    <title>icon-water-rescue</title>
    <desc>Created with Sketch.</desc>
    <g id="Website" stroke="none" stroke-width="1" fill="none" fill-rule="evenodd">
        <g id="Set-Medic-LA" transform="translate(-1149.000000, -807.000000)" fill="#191925" fill-rule="nonzero">
            <g id="icon-water-rescue" transform="translate(1149.000000, 807.000000)">
                <path d="M14.9990845,7.58958899 L36.1253357,7.58958899 C36.7726136,7.58958899 37.2972107,7.06689261 37.2972107,6.42195992 C37.2972107,5.77748343 36.7726136,5.25433084 36.1253357,5.25433084 L14.9990845,5.25433084 C11.0417175,5.25433084 7.8218079,8.4625741 7.8218079,12.4060589 L7.8218079,16.9424803 C7.8218079,23.3872455 13.084259,28.6306299 19.5524597,28.6306299 C23.2644654,28.6306299 26.7965698,26.8504516 29.0011596,23.8688925 C29.2474365,23.5354797 29.6296692,23.3443717 30.0498962,23.3443717 C30.4696655,23.3443717 30.8518982,23.5354797 31.0981751,23.8688925 C33.3027649,26.8504516 36.8348694,28.6306299 40.546875,28.6306299 C47.0150756,28.6306299 52.2775268,23.3872455 52.2775268,16.9424803 L52.2775268,12.4060589 C52.2775268,10.4958907 51.5309143,8.69974875 50.1750183,7.3492216 C48.8195801,5.9982383 47.0173645,5.25433084 45.0997924,5.25433084 L45.0498962,5.25433084 C44.4026185,5.25433084 43.8780212,5.77748343 43.8780212,6.42195992 L43.8780212,6.43792361 C43.8780212,7.08285618 44.4026185,7.60555268 45.0498962,7.60555268 C45.1121521,7.60555268 45.1730346,7.60099157 45.2330017,7.59141344 C46.473999,7.62470907 47.636261,8.12186369 48.5179138,9.00032208 C49.4306946,9.90979568 49.933319,11.1193865 49.933319,12.4060589 L49.933319,16.9424803 C49.933319,22.0996608 45.722351,26.2953717 40.546875,26.2953717 C37.5764465,26.2953717 34.7497559,24.8704993 32.9855346,22.4837013 C32.2924805,21.5464053 31.222229,21.0086573 30.0494385,21.0086573 C28.8766479,21.0086573 27.8068542,21.5464053 27.1138001,22.4837013 C25.3491211,24.8704993 22.5224304,26.2953717 19.5524597,26.2953717 C14.376526,26.2953717 10.1655579,22.0996608 10.1655579,16.9424803 L10.1655579,12.4060589 C10.1655579,9.75015884 12.3339844,7.58958899 14.9990845,7.58958899 L14.9990845,7.58958899 Z" id="Path"></path>
                <path d="M25.1179505,43.0157288 C24.4706726,43.0157288 23.9460755,43.5384252 23.9460755,44.1833579 C23.9460755,44.8282905 24.4706726,45.350987 25.1179505,45.350987 L34.9818421,45.350987 C35.6291198,45.350987 36.1537171,44.8282905 36.1537171,44.1833579 C36.1537171,43.5384252 35.6291198,43.0157288 34.9818421,43.0157288 L25.1179505,43.0157288 Z" id="Path"></path>
                <path d="M28.014679,41.3728382 L32.0855713,41.3728382 C32.7323913,41.3728382 33.2574463,40.8501418 33.2574463,40.2052091 C33.2574463,39.5607326 32.7323913,39.03758 32.0855713,39.03758 L28.014679,39.03758 C27.3674011,39.03758 26.842804,39.5607326 26.842804,40.2052091 C26.842804,40.8501418 27.3674011,41.3728382 28.014679,41.3728382 Z" id="Path"></path>
                <path d="M32.0855713,47.0326466 L28.014679,47.0326466 C27.3674011,47.0326466 26.842804,47.555799 26.842804,48.2002756 C26.842804,48.8452082 27.3674011,49.3679047 28.014679,49.3679047 L32.0855713,49.3679047 C32.7323913,49.3679047 33.2574463,48.8452082 33.2574463,48.2002756 C33.2574463,47.555799 32.7323913,47.0326466 32.0855713,47.0326466 Z" id="Path"></path>
                <path d="M58.828125,8.45527644 L56.9293213,8.45527644 C56.199646,6.1934513 54.8016358,4.16241527 52.9257202,2.66593432 C50.7710266,0.946874201 48.0610657,0 45.2961731,0 L14.8036194,0 C12.0378112,0 9.32785032,0.946874201 7.17315678,2.66593432 C5.29678348,4.16241527 3.89923102,6.1934513 3.16955566,8.45527644 L1.171875,8.45527644 C0.52459711,8.45527644 -2.84217094e-14,8.97842903 -2.84217094e-14,9.62290552 L-2.84217094e-14,19.9783159 C-2.84217094e-14,20.6227925 0.52459711,21.1459449 1.171875,21.1459449 L3.0931091,21.1459449 C3.58749387,23.0889528 4.43115235,24.9065317 5.60852051,26.5590005 C5.98297125,27.0848897 6.71447754,27.2084941 7.242279,26.8349441 C7.77008064,26.46185 7.89413448,25.7329941 7.51968384,25.2071048 C6.62796024,23.9555524 5.95916742,22.5940787 5.52291867,21.1454889 C5.52841184,21.1454889 5.53344727,21.1445768 5.53848269,21.1445768 C5.572815,21.1436645 5.60714719,21.14184 5.64102176,21.1381912 C5.64422602,21.1377351 5.64788812,21.137279 5.65155023,21.1368229 C5.68725586,21.1322618 5.7220459,21.1267886 5.75683594,21.119947 C5.75866699,21.1194909 5.76004031,21.1185788 5.76187137,21.1185788 C6.28829952,21.0040963 6.68289186,20.5370447 6.68289186,19.9783159 L6.68289186,9.62290552 C6.68289186,9.04410817 6.23474124,8.5364632 5.65704352,8.46439867 C6.2901306,6.92048279 7.31781,5.54167712 8.63800056,4.48853034 C10.4040527,3.08007777 12.5363159,2.33525815 14.8036194,2.33525815 L45.2957154,2.33525815 C47.5630188,2.33525815 49.6948242,3.08007777 51.4608764,4.48853034 C52.7783203,5.53985258 53.8046264,6.91592179 54.4381713,8.4566448 C53.8215637,8.48309891 53.3171081,9.00670758 53.3171081,9.62290552 L53.3171081,19.9783159 C53.3171081,20.6227925 53.8417054,21.1459449 54.4889831,21.1459449 L54.574585,21.1459449 C52.809906,27.0041591 47.3515319,31.1232442 41.092987,31.1232442 L35.0656127,31.1232442 C34.6453858,31.1232442 34.2402649,31.1410323 33.89328,30.8559667 C32.9956055,30.1147958 31.5994263,29.2313202 30.0489808,29.2313202 C28.5012818,29.2313202 27.1046448,30.1143397 26.2060547,30.8550544 C25.858612,31.1405763 25.4544068,31.1232442 25.0337219,31.1232442 L19.0054322,31.1232442 C17.2732544,31.1232442 15.5813599,30.8130927 13.9764404,30.2009997 C13.3717346,29.9711228 12.6947021,30.2721521 12.4630737,30.874667 C12.2319031,31.4767257 12.5344849,32.1517612 13.138733,32.3825505 C15.0119018,33.096355 16.9857787,33.4585024 19.0054322,33.4585024 L23.8623047,33.4585024 L23.8623047,36.2284288 C22.486267,37.2756461 21.3839721,38.6631178 20.683136,40.2635906 L16.4840698,40.2635906 L16.4840698,39.657883 C16.4840698,38.5176202 15.5534362,37.5899025 14.4090271,37.5899025 L10.8164978,37.5899025 C10.2191162,37.5899025 9.71786496,38.0377976 9.65194698,38.6289099 L8.47778322,49.1818138 C8.44070436,49.5115777 8.54690556,49.8417979 8.76937866,50.0890069 C8.99139396,50.3366718 9.30908202,50.4780645 9.64233396,50.4780645 L14.4090271,50.4780645 C15.5534362,50.4780645 16.4840698,49.5503468 16.4840698,48.4100839 L16.4840698,48.1423503 L20.5833435,48.1423503 C22.1031188,51.8655362 25.7734681,54.4977188 30.0498962,54.4977188 C34.3258666,54.4977188 37.9962158,51.8655362 39.5159912,48.1423503 L43.710022,48.1423503 L43.710022,48.4100839 C43.710022,49.5503468 44.6406556,50.4780645 45.7850647,50.4780645 L50.5517578,50.4780645 C50.8850098,50.4780645 51.2026978,50.3366718 51.4247132,50.0890069 C51.6471862,49.8417979 51.7533874,49.5115777 51.7167663,49.1818138 L50.5421448,38.6289099 C50.4762268,38.0377976 49.9745179,37.5899025 49.377594,37.5899025 L45.7850647,37.5899025 C44.6406556,37.5899025 43.710022,38.5176202 43.710022,39.657883 L43.710022,40.2635906 L39.4166565,40.2635906 C38.7158203,38.6631178 37.6139831,37.2756461 36.2374877,36.2284288 L36.2374877,33.4585024 L41.092987,33.4585024 C48.6300659,33.4585024 55.1715088,28.335986 57.00531,21.1459449 L58.828125,21.1459449 C59.4754029,21.1459449 60,20.6227925 60,19.9783159 L60,9.62290552 C60,8.97842903 59.4754029,8.45527644 58.828125,8.45527644 Z M2.34375,10.7905346 L4.05487055,10.7905346 C4.05578613,10.7905346 4.05624387,10.7909908 4.05715945,10.7909908 L4.33868414,10.7909908 L4.33868414,18.8102307 L4.03106695,18.8102307 C4.02923578,18.8102307 4.02694699,18.8106868 4.02511594,18.8106868 L2.34375,18.8106868 L2.34375,10.7905346 Z M14.1403198,48.1428064 L10.9510804,48.1428064 L11.8656921,39.9251607 L14.1403198,39.9251607 L14.1403198,48.1428064 Z M19.9438477,45.8070921 L16.4840698,45.8070921 L16.4840698,42.5983927 L19.9813842,42.5983927 C19.97818,42.6166368 19.9763489,42.6353371 19.9731445,42.6531253 C19.9534607,42.7717126 19.9351501,42.890756 19.9195862,43.0107117 C19.8005677,43.9379733 19.8078919,44.882111 19.9438477,45.8070921 Z M48.3283997,39.9251607 L49.2430114,48.1428064 L46.053772,48.1428064 L46.053772,46.9856677 C46.053772,46.9820189 46.0542298,46.97837 46.0542298,46.9747212 L46.0542298,41.4307636 C46.0542298,41.4271147 46.053772,41.4234659 46.053772,41.419817 L46.053772,39.9251607 L48.3283997,39.9251607 Z M40.118866,42.5988488 L43.710022,42.5988488 L43.710022,45.8070921 L40.155487,45.8070921 C40.3115845,44.7452794 40.3001404,43.6565565 40.118866,42.5988488 Z M37.5558471,41.9603016 C37.9989623,43.3555272 38.0360413,44.8702521 37.6698304,46.2873708 C36.7913818,49.6625486 33.7083435,52.1624606 30.0498962,52.1624606 C26.3914489,52.1624606 23.3084107,49.6625486 22.4299622,46.2873708 C21.9891358,44.5815377 22.1379089,42.7438902 22.858429,41.1352075 C23.4480286,39.8188882 24.4047546,38.6754327 25.5958558,37.8576361 C26.9073487,36.9572847 28.4957885,36.4619546 30.0906373,36.4792865 C31.7390442,36.4966185 33.348999,37.0133856 34.6815491,37.9835212 C35.8799743,38.8555942 36.8215943,40.0624482 37.3690795,41.437149 C37.4372864,41.6091007 37.5,41.7837889 37.5558471,41.9603016 L37.5558471,41.9603016 Z M33.5179138,34.7469994 C31.6699219,34.0824542 29.6388245,33.9629546 27.7253723,34.4090254 C27.2085572,34.5294371 26.6981507,34.689074 26.2060547,34.8883919 C26.2060547,34.4062888 26.2060547,33.9241856 26.2060547,33.4420826 C26.2060547,33.3695619 26.2179565,33.3650009 26.2898255,33.3463006 C26.3571166,33.3289685 26.4271546,33.3221269 26.493988,33.3020584 C27.2428894,33.0813034 28.0577087,32.3442376 28.5479737,32.0587158 C28.9613342,31.8178923 29.4255065,31.6117328 29.9084473,31.5725078 C30.3643799,31.5355632 30.8184814,31.6874462 31.2236023,31.8840275 C31.4987182,32.0172102 32.6000977,32.9043347 33.5586548,33.2874631 C33.6424255,33.3212148 33.7715149,33.3193903 33.8511658,33.3595276 C33.9065552,33.38735 33.8937377,33.5716164 33.8937377,33.6591886 L33.8937377,34.1567993 L33.8937377,34.888848 C33.7696838,34.8382204 33.6437988,34.7921537 33.5179138,34.7469994 Z M57.65625,18.8106868 L56.073761,18.8106868 C56.0714721,18.8106868 56.0696412,18.8102307 56.0673523,18.8102307 L55.6608581,18.8102307 L55.6608581,10.7905346 L56.0417175,10.7905346 L56.0435486,10.7905346 L57.65625,10.7905346 L57.65625,18.8106868 Z" id="Shape"></path>
                <path d="M8.62609866,29.7298432 C8.90304564,30.1403377 9.4235229,30.3378313 9.9041748,30.2087535 C10.3710937,30.0833246 10.7171631,29.6751106 10.7670593,29.1962002 C10.8164978,28.7191143 10.5491638,28.2456771 10.1184082,28.0345004 C9.67163088,27.8160261 9.12414552,27.906791 8.77120968,28.2561676 C8.38027956,28.6447691 8.32122798,29.2737381 8.62609866,29.7298432 Z" id="Path"></path>
                <path d="M39.6505737,7.07008524 C39.9238587,7.47465053 40.4333496,7.67396844 40.9098815,7.55446892 C41.3790893,7.43633765 41.7315674,7.03359686 41.7892456,6.55559868 C41.8469238,6.07212728 41.5809632,5.58956813 41.1433411,5.37565474 C40.6979369,5.15763656 40.1486206,5.24703316 39.7970581,5.59640973 C39.4056702,5.98501116 39.3447877,6.61215572 39.6505737,7.07008524 Z" id="Path"></path>
            </g>
        </g>
    </g>
</svg>