<?xml version="1.0" encoding="UTF-8"?>
<svg width="60px" height="56px" viewBox="0 0 60 56" version="1.1" xmlns="http://www.w3.org/2000/svg" xmlns:xlink="http://www.w3.org/1999/xlink">
    <!-- Generator: Sketch 62 (91390) - https://sketch.com -->
    <title>video-camera (1)</title>
    <desc>Created with Sketch.</desc>
    <g id="Website" stroke="none" stroke-width="1" fill="none" fill-rule="evenodd">
        <g id="Services" transform="translate(-120.000000, -3066.000000)" fill="#000000" fill-rule="nonzero">
            <g id="video-camera-(1)" transform="translate(120.000000, 3066.000000)">
                <path d="M37.03125,23.3333333 C36.38443,23.3333333 35.859375,23.8560547 35.859375,24.5 C35.859375,25.1439453 36.38443,25.6666667 37.03125,25.6666667 C37.67807,25.6666667 38.203125,25.1439453 38.203125,24.5 C38.203125,23.8560547 37.67807,23.3333333 37.03125,23.3333333 Z" id="Path"></path>
                <path d="M37.03125,30.3333333 C36.38443,30.3333333 35.859375,30.8560547 35.859375,31.5 C35.859375,32.1439453 36.38443,32.6666667 37.03125,32.6666667 C37.67807,32.6666667 38.203125,32.1439453 38.203125,31.5 C38.203125,30.8560547 37.67807,30.3333333 37.03125,30.3333333 Z" id="Path"></path>
                <path d="M8.90625,35 C8.25942996,35 7.734375,35.5227214 7.734375,36.1666667 C7.734375,36.810612 8.25942996,37.3333333 8.90625,37.3333333 C9.55307004,37.3333333 10.078125,36.810612 10.078125,36.1666667 C10.078125,35.5227214 9.55307004,35 8.90625,35 Z" id="Path"></path>
                <path d="M59.3701172,14.1321614 C58.9828491,13.9311849 58.5159302,13.961263 58.1575012,14.2100911 L48.3815003,21 L45.234375,21 L45.234375,19.8333333 C45.234375,17.9033203 43.6573792,16.3333333 41.71875,16.3333333 L37.3631286,16.3333333 C39.3132019,14.6216146 40.546875,12.1192057 40.546875,9.33333333 C40.546875,4.18678388 36.3414001,0 31.171875,0 C27.6457214,0 24.5690918,1.94915362 22.96875,4.82115888 C21.3684082,1.94915362 18.2917786,0 14.765625,0 C9.59609988,0 5.390625,4.18678388 5.390625,9.33333333 C5.390625,12.1192057 6.62429813,14.6216146 8.57437137,16.3333333 L3.515625,16.3333333 C1.57699582,16.3333333 0,17.9033203 0,19.8333333 L0,40.8333333 C0,42.7633464 1.57699582,44.3333333 3.515625,44.3333333 L10.078125,44.3333333 L10.078125,47.8333333 C10.078125,48.4777344 10.6027221,49 11.25,49 L14.765625,49 L14.765625,54.8333333 C14.765625,55.4777344 15.2902221,56 15.9375,56 L30,56 C30.6472779,56 31.171875,55.4777344 31.171875,54.8333333 L31.171875,49 L34.6875,49 C35.3347779,49 35.859375,48.4777344 35.859375,47.8333333 L35.859375,44.3333333 L41.71875,44.3333333 C43.6573792,44.3333333 45.234375,42.7633464 45.234375,40.8333333 L45.234375,37.3333333 L48.3815003,37.3333333 L58.1575012,44.1236979 C58.5118103,44.369336 58.9787292,44.4044271 59.3701172,44.2011719 C59.7573853,43.9997396 60,43.6014322 60,43.1666667 L60,15.1666667 C60,14.7319011 59.7573853,14.3335938 59.3701172,14.1321614 Z M31.171875,2.33333333 C35.0491334,2.33333333 38.203125,5.47376305 38.203125,9.33333333 C38.203125,13.1933594 35.0491334,16.3333333 31.171875,16.3333333 C27.2946166,16.3333333 24.140625,13.1933594 24.140625,9.33333333 C24.140625,5.47376305 27.2946166,2.33333333 31.171875,2.33333333 Z M24.9806214,16.3333333 L20.9564209,16.3333333 C21.7616272,15.6269531 22.4446106,14.7861328 22.96875,13.8455078 C23.4928894,14.7861328 24.1758728,15.6269531 24.9806214,16.3333333 Z M7.734375,9.33333333 C7.734375,5.47376305 10.8883666,2.33333333 14.765625,2.33333333 C18.6428834,2.33333333 21.796875,5.47376305 21.796875,9.33333333 C21.796875,13.1933594 18.6428834,16.3333333 14.765625,16.3333333 C10.8883666,16.3333333 7.734375,13.1933594 7.734375,9.33333333 Z M28.828125,53.6666667 L17.109375,53.6666667 L17.109375,49 L28.828125,49 L28.828125,53.6666667 Z M33.515625,46.6666667 L12.421875,46.6666667 L12.421875,44.3333333 L33.515625,44.3333333 L33.515625,46.6666667 Z M42.890625,40.8333333 C42.890625,41.4768229 42.3651123,42 41.71875,42 L3.515625,42 C2.8692627,42 2.34375,41.4768229 2.34375,40.8333333 L2.34375,19.8333333 C2.34375,19.1902995 2.8692627,18.6666667 3.515625,18.6666667 L41.71875,18.6666667 C42.3651123,18.6666667 42.890625,19.1902995 42.890625,19.8333333 L42.890625,40.8333333 Z M45.234375,23.3333333 L47.578125,23.3333333 L47.578125,35 L45.234375,35 L45.234375,23.3333333 Z M57.65625,40.9304036 L49.921875,35.5582682 L49.921875,22.7755208 L57.65625,17.4033854 L57.65625,40.9304036 Z" id="Shape"></path>
                <path d="M14.765625,5.83333333 C12.8269958,5.83333333 11.25,7.40332028 11.25,9.33333333 C11.25,11.2633464 12.8269958,12.8333333 14.765625,12.8333333 C16.7042542,12.8333333 18.28125,11.2633464 18.28125,9.33333333 C18.28125,7.40332028 16.7042542,5.83333333 14.765625,5.83333333 Z M14.765625,10.5 C14.1192627,10.5 13.59375,9.97682292 13.59375,9.33333333 C13.59375,8.69029945 14.1192627,8.16666667 14.765625,8.16666667 C15.4119873,8.16666667 15.9375,8.69029945 15.9375,9.33333333 C15.9375,9.97682292 15.4119873,10.5 14.765625,10.5 Z" id="Shape"></path>
                <path d="M31.171875,12.8333333 C33.1105042,12.8333333 34.6875,11.2633464 34.6875,9.33333333 C34.6875,7.40332028 33.1105042,5.83333333 31.171875,5.83333333 C29.2332458,5.83333333 27.65625,7.40332028 27.65625,9.33333333 C27.65625,11.2633464 29.2332458,12.8333333 31.171875,12.8333333 Z M31.171875,8.16666667 C31.8182373,8.16666667 32.34375,8.69029945 32.34375,9.33333333 C32.34375,9.97682292 31.8182373,10.5 31.171875,10.5 C30.5255127,10.5 30,9.97682292 30,9.33333333 C30,8.69029945 30.5255127,8.16666667 31.171875,8.16666667 Z" id="Shape"></path>
                <path d="M26.484375,31.5 L26.484375,24.5 C26.484375,23.8555989 25.9597779,23.3333333 25.3125,23.3333333 L8.90625,23.3333333 C8.25897211,23.3333333 7.734375,23.8555989 7.734375,24.5 L7.734375,31.5 C7.734375,32.1444011 8.25897211,32.6666667 8.90625,32.6666667 L25.3125,32.6666667 C25.9597779,32.6666667 26.484375,32.1444011 26.484375,31.5 Z M24.140625,30.3333333 L10.078125,30.3333333 L10.078125,25.6666667 L24.140625,25.6666667 L24.140625,30.3333333 Z" id="Shape"></path>
                <path d="M37.03125,35 L13.59375,35 C12.9464721,35 12.421875,35.5222656 12.421875,36.1666667 C12.421875,36.8110678 12.9464721,37.3333333 13.59375,37.3333333 L37.03125,37.3333333 C37.6785279,37.3333333 38.203125,36.8110678 38.203125,36.1666667 C38.203125,35.5222656 37.6785279,35 37.03125,35 Z" id="Path"></path>
            </g>
        </g>
    </g>
</svg>