<?xml version="1.0" encoding="UTF-8"?>
<svg width="33px" height="32px" viewBox="0 0 33 32" version="1.1" xmlns="http://www.w3.org/2000/svg" xmlns:xlink="http://www.w3.org/1999/xlink">
    <!-- Generator: Sketch 62 (91390) - https://sketch.com -->
    <title>Asset 2</title>
    <desc>Created with Sketch.</desc>
    <g id="Website" stroke="none" stroke-width="1" fill="none" fill-rule="evenodd">
        <g id="Set-Medic" transform="translate(-702.000000, -1101.000000)" fill="#AB0B0B" fill-rule="nonzero">
            <g id="Group-2" transform="translate(120.000000, 1088.000000)">
                <g id="Asset-2" transform="translate(582.500000, 13.000000)">
                    <path d="M20.1416405,22.9117433 C20.1129376,22.9666289 20.1278631,23.0235052 20.1278631,23.0781064 C20.1278631,25.9928242 20.1288199,28.907542 20.1307334,31.8222599 C20.1307334,31.9684318 20.0925585,32 19.9496177,32 C17.3187047,31.995448 14.6876003,31.9942157 12.0563046,31.9963012 C11.836727,31.9963012 11.8694483,32.0150703 11.8694483,31.8034907 C11.8694483,28.8982522 11.8694483,25.9930138 11.8694483,23.0877753 L11.8694483,22.9171466 C11.7976909,22.9071932 11.7572198,22.9546849 11.7104339,22.9819855 C9.21748645,24.4402924 6.72540005,25.9001159 4.23417474,27.3614562 C4.12854786,27.4234513 4.08176204,27.4280014 4.01287495,27.3094144 C2.69119946,25.0362606 1.36540987,22.7665193 0.035506203,20.5001907 C-0.0250570362,20.3969603 -0.00955743941,20.3580001 0.0929121169,20.3011238 C2.59064343,18.8981765 5.0869396,17.4937125 7.58180061,16.0877318 L7.74339826,15.9970142 C7.68226096,15.9594759 7.63978059,15.9321753 7.59643912,15.9065809 C5.10004728,14.4448615 2.60289003,12.9839952 0.104967359,11.5239821 C-0.00439090716,11.4602807 -0.0239089179,11.4179079 0.0432560014,11.3033023 C1.37067208,9.04019658 2.69445246,6.77510023 4.01459712,4.50801321 C4.07716957,4.40023273 4.11620559,4.38715119 4.22642495,4.45113696 C6.72071191,5.91626897 9.21672104,7.37865195 11.7144524,8.83828592 C11.7586549,8.86416461 11.8031445,8.88919016 11.8510784,8.91677514 C11.8826517,8.85335813 11.8685872,8.79648188 11.8685872,8.74244945 C11.8685872,5.88441827 11.8677261,3.02648188 11.866004,0.168640291 C11.866004,0.0264496851 11.9059011,0 12.041092,0 C14.6195743,0.00398356935 17.1979609,0.00398356935 19.7762519,0 C19.9128779,0 19.9510529,0.0307154033 19.9510529,0.17063096 C19.9464604,3.02392245 19.9453123,5.87721395 19.9476085,8.73050544 L19.9476085,8.90539989 C20.0187919,8.91194066 20.0604111,8.86843033 20.1063359,8.84198288 C22.6586028,7.38215932 25.2101043,5.92081907 27.7608404,4.45796211 C27.8667543,4.39738891 27.9155494,4.39198567 27.9850105,4.51142578 C29.3041984,6.77908157 30.6275961,9.04465189 31.9552035,11.3081367 C32.017776,11.4147797 32.0103132,11.4557306 31.9003809,11.5200008 C29.3863846,12.9858911 26.873058,14.4559524 24.3604011,15.9301846 L24.2742923,15.9816576 C24.2946714,16.041662 24.3526513,16.051331 24.3954187,16.0755034 C26.8864527,17.4784507 29.377965,18.881398 31.8699558,20.2843453 C32.0306923,20.3747786 32.0304053,20.3744942 31.9345374,20.5385821 C30.6186025,22.7916397 29.3036244,25.0451712 27.989603,27.2991767 C27.9204289,27.418048 27.8770874,27.427717 27.7585442,27.3580436 C25.2686584,25.8948075 22.7767633,24.4349839 20.2828591,22.9785729 C20.2386565,22.9529786 20.1999075,22.9143028 20.1416405,22.9117433 Z" id="Path"></path>
                </g>
            </g>
        </g>
    </g>
</svg>