<?xml version="1.0" encoding="UTF-8"?>
<svg width="173px" height="54px" viewBox="0 0 173 54" version="1.1" xmlns="http://www.w3.org/2000/svg" xmlns:xlink="http://www.w3.org/1999/xlink">
    <!-- Generator: Sketch 62 (91390) - https://sketch.com -->
    <title>path3382</title>
    <desc>Created with Sketch.</desc>
    <g id="Website" stroke="none" stroke-width="1" fill="none" fill-rule="evenodd">
        <g id="Set-Medic-LA" transform="translate(-347.000000, -2167.000000)" fill="#FFFFFF" fill-rule="nonzero">
            <path d="M460.027478,2220.85729 C459.443118,2220.67006 458.557498,2219.73454 458.369505,2219.10588 C457.894541,2217.51759 458.496253,2214.10596 459.690007,2211.61881 C460.240611,2210.47164 461.264705,2209.43257 462.186677,2209.08563 C463.485348,2208.59693 464.60931,2208.48923 465.939983,2208.72599 C468.026413,2209.0972 468.794594,2209.90938 468.796279,2211.74582 C468.797512,2212.8108 468.715745,2212.8574 466.85259,2212.8574 C465.908453,2212.8574 465.287518,2212.80848 465.207709,2212.72781 C465.129584,2212.64884 465.102757,2212.33723 465.139038,2211.93003 C465.189949,2211.35858 465.163483,2211.22985 464.956247,2211.04099 C464.672844,2210.7827 464.313499,2210.83748 463.844358,2211.2105 C463.455638,2211.51958 463.13705,2212.16372 462.766805,2213.38926 C462.609691,2213.90929 462.431882,2214.49434 462.371689,2214.68935 C462.032195,2215.7891 461.781365,2217.06188 461.781365,2217.68477 C461.781365,2218.31898 461.815858,2218.42261 462.102876,2218.65082 C462.774404,2219.18476 463.654973,2218.68378 464.131668,2217.49658 C464.416277,2216.78775 464.355686,2216.49259 463.911812,2216.42556 C463.432312,2216.35315 463.36709,2216.11165 463.59375,2215.24796 C463.708501,2214.81072 463.856682,2214.38317 463.923048,2214.29785 C464.089703,2214.0836 468.013367,2214.14478 468.230806,2214.36502 C468.387667,2214.52389 468.356001,2214.69929 467.852116,2216.46221 C467.722057,2216.91724 467.544866,2217.55547 467.458347,2217.88049 C466.979544,2219.67915 466.766358,2220.37892 466.653685,2220.52159 C466.555518,2220.64589 466.104926,2220.67351 464.593173,2220.64789 C462.959603,2220.62021 462.603681,2220.64593 462.307531,2220.81309 C461.902418,2221.04174 460.677329,2221.06549 460.027478,2220.85729 L460.027478,2220.85729 Z M499.489945,2220.93677 C498.080262,2220.72044 496.93283,2219.98837 496.494486,2219.02564 C495.849704,2217.60948 496.448177,2213.88993 497.733251,2211.32651 C498.13696,2210.52123 499.038904,2209.5519 499.690683,2209.22287 C501.874745,2208.1203 505.375547,2208.52147 506.380136,2209.98943 C506.675176,2210.42058 506.729654,2210.62572 506.773543,2211.4707 C506.813716,2212.2446 506.787449,2212.48257 506.649022,2212.59869 C506.522667,2212.7047 506.003816,2212.73667 504.794111,2212.71299 L503.114645,2212.68011 L503.15478,2211.89676 C503.191111,2211.18791 503.16916,2211.09516 502.924146,2210.92168 C502.541191,2210.65055 502.412828,2210.67743 501.913645,2211.13329 C501.410234,2211.59301 500.95741,2212.51589 500.603764,2213.80292 C500.469801,2214.29046 500.285526,2214.95528 500.194281,2215.2803 C500.10301,2215.60532 499.936208,2216.32982 499.823573,2216.89028 C499.628484,2217.86114 499.628484,2217.92424 499.823648,2218.2253 C500.135113,2218.70582 500.525028,2218.84424 500.888664,2218.60341 C501.241574,2218.36967 501.769992,2217.56143 501.769992,2217.25538 C501.769992,2217.1365 501.836131,2216.9478 501.916975,2216.83604 C502.04661,2216.65684 502.271008,2216.63673 503.817023,2216.66571 L505.570087,2216.69859 L505.553885,2217.07299 C505.54503,2217.27892 505.404333,2217.731 505.241335,2218.07761 C504.647813,2219.33975 503.560147,2220.28483 502.237695,2220.68748 C501.560336,2220.89371 500.082843,2221.02776 499.489945,2220.93677 L499.489945,2220.93677 Z M423.010749,2220.61591 C422.974031,2220.51919 422.998938,2220.33627 423.066103,2220.20942 C423.133266,2220.08256 423.242745,2219.746 423.309391,2219.46149 C423.376035,2219.17698 423.535363,2218.5719 423.66345,2218.11687 C423.791537,2217.66184 424.050088,2216.7045 424.238006,2215.98944 C424.425924,2215.27439 424.694764,2214.26386 424.835427,2213.74383 C424.976088,2213.22379 425.287633,2212.01176 425.527751,2211.05044 C425.767866,2210.08911 426.028382,2209.23814 426.106675,2209.15939 C426.298376,2208.96658 431.816819,2208.98007 432.503022,2209.17502 C434.432658,2209.72324 434.888963,2211.71414 433.941616,2215.45176 C433.259975,2218.14106 432.267497,2219.71525 430.82179,2220.40018 L430.152934,2220.71706 L426.615221,2220.75441 C423.568011,2220.78658 423.068252,2220.76738 423.010749,2220.61591 L423.010749,2220.61591 Z M428.232885,2218.64873 C428.533794,2218.64873 429.359532,2217.87949 429.619819,2217.3567 C430.047253,2216.49817 430.454069,2215.09019 430.749076,2213.44835 C431.067027,2211.67883 430.89646,2211.17633 429.970721,2211.15531 C429.495223,2211.1445 429.441785,2211.17454 429.255393,2211.5573 C429.144601,2211.78482 428.937233,2212.42305 428.794573,2212.97559 C428.651915,2213.52813 428.408219,2214.43229 428.253026,2214.98483 C428.097836,2215.53737 427.896089,2216.25537 427.8047,2216.5804 C427.435436,2217.8937 427.365283,2218.39863 427.525049,2218.59322 C427.608346,2218.69467 427.751294,2218.74866 427.842714,2218.7132 C427.934135,2218.67774 428.109711,2218.64873 428.232885,2218.64873 L428.232885,2218.64873 Z M434.814334,2220.60031 C434.749427,2220.42933 434.970307,2219.55392 436.350495,2214.51206 C437.218563,2211.34099 437.422553,2210.54059 437.520908,2209.91969 C437.56576,2209.63654 437.707051,2209.29915 437.834889,2209.16993 C438.057666,2208.94474 438.199227,2208.93679 441.242602,2208.97833 C444.246306,2209.01934 444.444203,2209.03576 444.904971,2209.2822 C445.640317,2209.6755 445.924779,2210.15891 445.977674,2211.10515 C446.038423,2212.19189 445.754905,2213.06352 445.101842,2213.79774 C444.823123,2214.1111 444.39105,2214.45 444.141681,2214.55085 C443.547294,2214.79125 443.494402,2214.98059 443.87181,2215.51693 C444.169994,2215.94068 444.183298,2216.02238 444.167714,2217.33423 C444.158734,2218.08971 444.106122,2219.1599 444.050788,2219.71244 L443.95018,2220.71706 L442.38573,2220.75014 C440.079299,2220.79892 440.098369,2220.82358 440.441093,2218.23506 C440.535768,2217.52001 440.614256,2216.84189 440.615512,2216.72813 C440.618592,2216.44907 440.205351,2216.04854 439.914347,2216.04854 C439.630872,2216.04854 439.459539,2216.41966 439.095878,2217.82139 C438.64817,2219.5471 438.368102,2220.47513 438.248749,2220.62842 C438.166576,2220.73395 437.669156,2220.77615 436.507404,2220.77615 C435.175574,2220.77615 434.869002,2220.74431 434.814334,2220.60031 L434.814334,2220.60031 Z M441.578327,2213.59609 C442.231673,2212.89463 442.417257,2211.4804 441.893163,2211.19688 C441.517079,2210.99343 441.04591,2211.10718 440.889788,2211.43911 C440.663257,2211.92074 440.251095,2213.59051 440.316326,2213.76234 C440.352318,2213.85714 440.557699,2213.92111 440.826099,2213.92111 C441.165122,2213.92111 441.350002,2213.84123 441.578327,2213.59609 Z M445.750004,2220.58361 C445.612452,2220.41608 445.948526,2219.67589 448.337286,2214.88522 C449.847238,2211.85701 451.174733,2209.28437 451.287273,2209.16824 C451.471103,2208.97857 451.745867,2208.95712 453.991482,2208.95712 C455.950855,2208.95712 456.519466,2208.9917 456.622456,2209.11714 C456.755393,2209.27905 456.752749,2209.32899 456.23363,2216.46221 C455.957591,2220.2553 455.922311,2220.53893 455.713188,2220.64657 C455.610143,2220.6996 454.894435,2220.75354 454.122725,2220.76644 C452.219536,2220.79824 452.272385,2220.8497 452.446015,2219.13397 C452.575167,2217.85776 452.570595,2217.7784 452.358643,2217.61774 C452.080432,2217.40686 450.899058,2217.46487 450.614759,2217.70336 C450.507369,2217.79346 450.112076,2218.52169 449.736333,2219.32166 L449.053165,2220.77615 L447.480627,2220.77615 C446.17008,2220.77615 445.881752,2220.74408 445.750004,2220.58361 L445.750004,2220.58361 Z M452.741288,2214.95528 C452.792951,2214.87402 452.898547,2214.43524 452.975944,2213.98021 C453.140916,2213.01029 453.031608,2212.77351 452.623283,2213.21627 C452.303086,2213.56347 451.792349,2214.8069 451.898574,2214.98064 C452.003564,2215.15235 452.627928,2215.13357 452.741288,2214.95528 Z M403.435387,2220.53592 C400.675969,2220.38605 396.537644,2219.90462 394.392485,2219.48391 C392.179914,2219.04998 390.401246,2218.65417 389.638142,2218.42593 C389.220132,2218.3009 388.457191,2218.08145 387.942718,2217.93826 C383.317719,2216.65098 378.375363,2214.43281 374.087009,2211.7197 C370.773432,2209.6233 367.317084,2206.60143 364.654111,2203.47258 C364.282493,2203.03595 363.997922,2202.79891 363.893827,2202.83929 C363.793383,2202.87825 363.55259,2203.57623 363.286129,2204.60082 C363.043396,2205.53418 362.749912,2206.64354 362.633943,2207.06607 C362.517973,2207.4886 362.303669,2208.28639 362.15771,2208.83893 C362.011751,2209.39147 361.74721,2210.34881 361.569838,2210.96635 C361.119244,2212.53516 360.850065,2213.52505 360.171779,2216.10763 C359.184221,2219.86777 359.079854,2220.2389 358.966947,2220.39203 C358.801381,2220.61659 347.095192,2220.60664 347.009863,2220.38187 C346.953936,2220.23455 347.108844,2219.58406 348.182534,2215.45759 C348.410872,2214.58003 348.993817,2212.26645 349.477967,2210.31631 C349.962116,2208.36617 350.540075,2206.10578 350.76232,2205.29322 C350.984564,2204.48066 351.268596,2203.41695 351.393502,2202.92941 C351.518409,2202.44188 351.919721,2200.95268 352.285309,2199.62008 C352.650896,2198.28749 353.0973,2196.63873 353.277317,2195.95618 C353.798798,2193.97896 353.932393,2193.48411 354.266451,2192.29228 C354.439544,2191.67473 354.736989,2190.58443 354.927441,2189.86938 C355.117893,2189.15432 355.345426,2188.30335 355.433074,2187.97833 C355.841996,2186.46191 356.116032,2185.4174 356.767358,2182.89261 C357.47238,2180.15967 357.810842,2178.86705 358.824424,2175.03648 C359.125432,2173.8989 359.574249,2172.17037 359.821796,2171.1953 C360.622907,2168.03978 360.768807,2167.53399 360.924006,2167.37428 C361.160028,2167.1314 376.654757,2167.17272 377.942619,2167.41967 C382.363549,2168.26738 385.654582,2171.17861 386.820325,2175.27286 C387.757562,2178.56457 387.763556,2181.17928 386.842514,2184.95162 C385.974052,2188.50859 384.103106,2191.96091 381.74565,2194.35647 C380.828739,2195.28821 378.782902,2197.01989 378.599051,2197.01989 C378.563675,2197.01989 378.241869,2197.20926 377.883925,2197.44071 C375.887217,2198.7318 372.987094,2199.75239 369.85255,2200.26706 C368.946686,2200.41579 369.138868,2200.69141 370.90437,2201.77554 C372.481506,2202.74401 373.483142,2203.28142 374.963953,2203.95363 C376.204611,2204.51682 379.298582,2205.6925 380.025502,2205.87696 C380.264182,2205.93752 380.933016,2206.12438 381.511798,2206.2922 C382.708426,2206.63916 385.072324,2207.16262 387.09666,2207.52891 C391.349035,2208.29834 396.807249,2208.62509 404.604645,2208.57699 L410.041695,2208.54345 L410.309377,2207.53883 C410.456603,2206.98629 410.68172,2206.13532 410.809637,2205.64779 C410.937555,2205.16025 411.140719,2204.41565 411.261114,2203.99312 C411.476998,2203.23546 412.173825,2200.64429 412.564266,2199.14732 C412.756089,2198.41185 412.875235,2197.97839 413.392677,2196.13346 C413.520299,2195.67843 413.672605,2195.07664 413.731135,2194.79615 C413.789666,2194.51567 413.92306,2194.0104 414.027565,2193.67335 C414.339496,2192.66728 414.404901,2192.42653 415.13054,2189.61354 C415.513458,2188.12913 416.062485,2186.03705 416.3506,2184.96447 C416.638714,2183.89189 417.141836,2182.0038 417.468647,2180.76871 C417.795457,2179.53362 418.29443,2177.67213 418.577474,2176.63205 C418.860518,2175.59198 419.333446,2173.81026 419.628423,2172.67267 C420.864434,2167.906 421.006991,2167.40376 421.18,2167.20637 C421.349127,2167.0134 421.867601,2167 428.914104,2167 C437.066424,2167 437.520078,2167.02812 439.562052,2167.64769 C443.133359,2168.73129 445.867451,2171.37981 446.978842,2174.83236 C447.911216,2177.72878 447.974486,2181.24927 447.151377,2184.43262 C447.016913,2184.95265 446.863681,2185.56429 446.810863,2185.7918 C446.612137,2186.64782 445.757892,2188.78003 445.248257,2189.69209 C445.084804,2189.98461 444.83675,2190.43669 444.697028,2190.69671 C443.698822,2192.55433 441.157309,2195.28636 439.173541,2196.63425 C437.933066,2197.47711 437.89085,2197.50248 436.876168,2198.0148 C436.522467,2198.19338 436.140565,2198.38902 436.027496,2198.44954 C435.54514,2198.70773 434.058963,2199.2564 433.193005,2199.49599 C430.799985,2200.15807 430.151461,2200.24668 427.414183,2200.28558 C425.972179,2200.30607 424.751003,2200.36464 424.700459,2200.41573 C424.649916,2200.46682 424.526927,2200.85385 424.427152,2201.2758 C424.327375,2201.69775 424.171927,2202.28232 424.08171,2202.57484 C423.991494,2202.86736 423.751914,2203.74492 423.54931,2204.52498 C422.998016,2206.64755 422.719716,2207.66376 422.545903,2208.18888 C422.459841,2208.4489 422.280636,2209.11372 422.147672,2209.66626 C422.014708,2210.2188 421.718102,2211.36229 421.488549,2212.20735 C421.258992,2213.05241 420.807873,2214.72776 420.48606,2215.93035 C420.164246,2217.13294 419.772767,2218.59502 419.616107,2219.17941 C419.459445,2219.76381 419.266853,2220.30282 419.188126,2220.37722 C419.01103,2220.54458 406.007002,2220.67558 403.435387,2220.53592 L403.435387,2220.53592 Z M371.28079,2198.18304 C372.81312,2197.88893 373.796844,2197.57764 374.847027,2197.05452 C378.683011,2195.14373 381.089695,2192.1269 382.60614,2187.32828 C383.321933,2185.06323 383.45605,2183.79872 383.157709,2182.1279 C382.53044,2178.61497 380.417724,2175.92031 377.302469,2174.65985 C375.728641,2174.02306 371.886864,2173.70517 371.498498,2174.1796 C371.300339,2174.42167 371.2007,2174.72592 370.695357,2176.63205 C370.488551,2177.4121 370.191941,2178.529 370.036222,2179.11405 C369.880503,2179.69909 369.679364,2180.47028 369.589246,2180.82781 C369.499128,2181.18533 369.287211,2181.98312 369.11832,2182.60066 C368.949429,2183.21821 368.661698,2184.30851 368.478917,2185.02356 C368.193778,2186.13905 367.712035,2187.95744 367.304715,2189.4557 C365.655282,2195.5229 365.29704,2196.99664 365.416707,2197.22267 C365.481002,2197.3441 365.805397,2197.70043 366.137584,2198.01452 L366.741562,2198.58558 L368.397315,2198.50213 C369.30798,2198.45624 370.605544,2198.31265 371.28079,2198.18304 L371.28079,2198.18304 Z M431.205267,2198.03236 C433.774735,2197.56925 436.168017,2196.61174 437.66353,2195.44852 C440.023991,2193.61255 441.766216,2190.76799 442.988089,2186.75503 C443.469576,2185.1737 443.479108,2185.10899 443.469408,2183.48709 C443.460815,2182.04907 443.419489,2181.70396 443.153818,2180.85128 C442.305201,2178.12761 440.73283,2176.17478 438.397362,2174.94395 C437.058413,2174.2383 435.812236,2173.96005 433.660708,2173.88636 C431.658004,2173.81777 431.62436,2173.83137 431.400947,2174.8001 C431.264798,2175.39045 430.611808,2177.88828 430.21139,2179.35043 C430.068973,2179.87046 429.799306,2180.88099 429.612128,2181.59604 C429.424951,2182.31109 429.163665,2183.29503 429.031492,2183.78257 C428.899319,2184.2701 428.722153,2184.96151 428.637789,2185.31904 C428.553424,2185.67657 428.394213,2186.2882 428.283987,2186.67823 C428.173761,2187.06826 427.88093,2188.15856 427.633251,2189.10113 C427.38557,2190.0437 427.101527,2191.10741 427.002043,2191.46494 C426.813799,2192.14145 426.182345,2194.6031 425.986399,2195.42432 C425.924357,2195.68434 425.77096,2196.23509 425.645517,2196.64822 C425.362161,2197.58141 425.355347,2198.03258 425.622059,2198.20129 C425.917845,2198.38839 429.898097,2198.26796 431.205267,2198.03236 L431.205267,2198.03236 Z M473.277972,2220.46906 C473.211259,2220.29335 473.797721,2217.85016 474.296505,2216.22582 C474.416275,2215.8358 474.652521,2214.98483 474.821505,2214.33478 C475.548366,2211.53861 476.201841,2209.24195 476.309612,2209.10485 C476.4827,2208.88462 482.597389,2208.90543 483.215755,2209.12835 C484.159942,2209.46873 484.506941,2210.06091 484.500605,2211.32092 C484.493284,2212.73398 483.778845,2213.96454 482.655809,2214.49813 C482.364673,2214.63647 482.126456,2214.80765 482.126456,2214.87854 C482.126456,2214.94943 482.244841,2215.1752 482.389542,2215.38025 C482.629093,2215.71973 482.652379,2215.88518 482.649922,2217.23044 C482.648425,2218.043 482.622134,2219.13331 482.591453,2219.65335 L482.535702,2220.59887 L480.815764,2220.63155 C479.098171,2220.66418 479.095577,2220.66383 478.905851,2220.37115 C478.730269,2220.10026 478.731105,2219.95329 478.916952,2218.43063 C479.1411,2216.59431 479.101513,2216.22249 478.660151,2216.01922 C478.393972,2215.89663 478.330701,2215.913 478.137222,2216.15452 C478.016155,2216.30565 477.917102,2216.50238 477.917102,2216.5917 C477.917102,2216.68103 477.77941,2217.22029 477.611124,2217.79006 C477.442826,2218.35983 477.229104,2219.14148 477.136175,2219.52705 C476.846897,2220.72732 476.975172,2220.65796 475.044631,2220.65796 C473.59954,2220.65796 473.339085,2220.63012 473.277947,2220.46906 L473.277972,2220.46906 Z M480.044116,2213.48584 C480.352327,2213.18734 480.723346,2212.20938 480.723346,2211.69543 C480.723346,2211.42497 480.20997,2210.96635 479.90721,2210.96635 C479.614652,2210.96635 479.361756,2211.30791 479.20714,2211.91188 C479.13227,2212.2044 478.989901,2212.69735 478.890785,2213.00732 C478.742143,2213.47214 478.737229,2213.60339 478.862698,2213.7562 C479.072254,2214.01145 479.634134,2213.88286 480.044116,2213.48584 Z M483.928722,2220.49674 C483.89506,2220.40807 484.387558,2219.27787 485.023148,2217.9852 C488.048414,2211.83243 489.308232,2209.34894 489.52799,2209.10485 C489.761867,2208.84507 489.824602,2208.83893 492.242789,2208.83893 C495.252154,2208.83893 495.138421,2208.78259 494.986686,2210.19812 C494.930936,2210.71815 494.802872,2212.20735 494.702123,2213.50745 C494.275515,2219.0121 494.149684,2220.47708 494.095954,2220.56496 C494.064674,2220.61611 493.311996,2220.65796 492.423335,2220.65796 C491.151507,2220.65796 490.777531,2220.62134 490.666318,2220.48589 C490.556501,2220.35214 490.555341,2220.02386 490.661204,2219.01213 C490.736049,2218.29621 490.763762,2217.65564 490.722804,2217.58864 C490.642783,2217.45776 489.283513,2217.41939 488.974417,2217.53928 C488.81233,2217.60215 487.738982,2219.69006 487.738982,2219.94248 C487.738982,2219.99344 487.629926,2220.17527 487.496637,2220.34655 C487.255514,2220.6564 487.246122,2220.65796 485.622157,2220.65796 C484.351501,2220.65796 483.976453,2220.62226 483.928809,2220.49674 L483.928722,2220.49674 Z M490.998437,2214.82506 C491.070575,2214.73719 491.142789,2214.325 491.158903,2213.90909 C491.196706,2212.93336 490.968404,2212.89379 490.516628,2213.79777 C490.194773,2214.4418 490.125204,2214.75735 490.272287,2214.90603 C490.40716,2215.04237 490.861618,2214.99169 490.998437,2214.82506 L490.998437,2214.82506 Z M506.256662,2220.48388 C506.18829,2220.30377 506.304792,2219.78152 506.929731,2217.46682 C507.640702,2214.83339 508.409394,2211.95731 508.730276,2210.72997 C508.908739,2210.04742 509.127063,2209.34271 509.215465,2209.16395 L509.376181,2208.83893 L512.701438,2208.83893 C516.553891,2208.83893 516.437788,2208.80237 516.030076,2209.88696 C515.904133,2210.222 515.801088,2210.62028 515.801088,2210.77202 C515.801088,2211.3339 515.502232,2211.43911 513.906155,2211.43911 C512.87061,2211.43911 512.405588,2211.48259 512.325754,2211.58685 C512.263531,2211.66811 512.128882,2211.99913 512.026524,2212.32246 C511.762477,2213.15656 511.841014,2213.21197 513.28719,2213.21197 C514.832905,2213.21197 514.860993,2213.24114 514.506424,2214.47815 C514.093161,2215.91993 514.242801,2215.81216 512.654294,2215.81216 C511.688144,2215.81216 511.233561,2215.85681 511.15031,2215.9599 C511.084669,2216.04115 510.926112,2216.45334 510.797936,2216.87587 C510.44661,2218.03403 510.475632,2218.05778 512.24264,2218.05778 C513.4724,2218.05778 513.715095,2218.08763 513.775347,2218.24634 C513.889405,2218.54676 513.449701,2220.21983 513.195894,2220.45113 C512.991003,2220.63788 512.646312,2220.65796 509.645852,2220.65796 C506.827048,2220.65796 506.312737,2220.63155 506.256675,2220.48388 L506.256662,2220.48388 Z M447.864595,2207.06901 C446.479633,2206.8883 445.130041,2206.22143 444.363654,2205.33913 C443.911648,2204.81875 443.386047,2203.77026 443.122963,2202.86413 C442.809036,2201.78289 442.840967,2199.30618 443.187645,2197.84722 C444.088515,2194.05597 446.047539,2191.08339 448.874674,2189.21786 C452.0314,2187.13483 456.440857,2186.968 459.219146,2188.82647 C459.467614,2188.99268 459.741396,2189.10133 459.827558,2189.06791 C459.913709,2189.03449 460.177026,2188.29699 460.41269,2187.42902 C461.771426,2182.42477 461.896503,2181.54431 461.376112,2180.64674 C460.980914,2179.96509 460.447686,2179.72367 459.208997,2179.66555 C456.732238,2179.54934 455.162995,2180.24882 452.805654,2182.51981 C450.999033,2184.26025 450.319983,2184.58604 449.758389,2183.98178 C448.817134,2182.96903 450.457971,2180.8192 453.245781,2179.41259 C455.434016,2178.3085 457.60384,2177.77514 460.320413,2177.67357 C465.392608,2177.48394 468.689142,2178.81095 470.083098,2181.60353 L470.492344,2182.42338 L470.488353,2184.25533 L470.484362,2186.08728 L469.76138,2188.92385 C468.598994,2193.48441 468.120715,2195.32892 467.692747,2196.9017 C466.228375,2202.28331 466.10323,2202.87897 466.065963,2204.64499 C466.050847,2205.36105 465.99834,2206.01257 465.949275,2206.09282 C465.880765,2206.20486 464.711308,2206.23874 460.911927,2206.23874 C455.376883,2206.23874 455.58413,2206.27082 455.809891,2205.44901 C455.987,2204.80431 455.967931,2204.46588 455.754498,2204.46588 C455.655129,2204.46588 455.194734,2204.7216 454.731396,2205.03415 C452.93044,2206.24899 451.75256,2206.76647 450.213403,2207.01903 C449.142285,2207.19479 448.87258,2207.20053 447.864687,2207.06901 L447.864595,2207.06901 Z M453.43808,2204.05514 C454.187662,2203.70547 455.187666,2203.06404 456.250624,2202.25111 C456.688909,2201.91592 456.678921,2201.94409 457.497624,2198.73365 C457.845747,2197.36855 458.381537,2195.29431 458.688292,2194.12422 C459.460704,2191.17788 459.453911,2191.35171 458.821763,2190.71273 C458.123493,2190.00691 457.26603,2189.57389 456.566624,2189.57389 C455.461731,2189.57389 454.773611,2190.3706 454.184601,2192.3318 C453.986142,2192.99261 453.775084,2193.69283 453.715587,2193.88784 C453.656089,2194.08286 453.478358,2194.77427 453.32063,2195.42432 C453.162901,2196.07437 452.891085,2197.13808 452.716594,2197.78813 C452.542104,2198.43817 452.330693,2199.26255 452.246791,2199.62008 C452.16289,2199.9776 451.906302,2200.96154 451.676596,2201.8066 C451.179395,2203.63575 451.149358,2204.13785 451.521126,2204.40551 C451.862619,2204.65137 452.35151,2204.56202 453.43808,2204.05514 L453.43808,2204.05514 Z M387.633591,2206.6815 C386.376074,2206.2363 385.37405,2205.39425 384.899895,2204.38423 C384.304958,2203.11694 384.39702,2200.71067 385.154222,2197.73675 C385.444948,2196.59492 385.752135,2195.34158 385.836857,2194.95156 C385.998718,2194.20641 386.915838,2190.58618 387.827959,2187.0919 C388.47568,2184.61051 388.657545,2183.87732 389.29379,2181.18238 C389.56236,2180.04479 389.849031,2179.04214 389.930838,2178.95426 C390.146295,2178.72279 399.576231,2178.67945 399.663574,2178.90953 C399.723637,2179.06774 399.635054,2179.45235 399.140083,2181.18238 C398.981998,2181.73492 398.65225,2182.95819 398.407307,2183.90076 C398.162364,2184.84332 397.794577,2186.25274 397.590001,2187.0328 C396.990161,2189.32001 396.783067,2190.12134 396.30712,2191.9968 C396.05967,2192.97187 395.700686,2194.35469 395.509376,2195.06975 C395.318068,2195.7848 395.135807,2196.50281 395.104353,2196.66532 C395.0729,2196.82783 394.929595,2197.38628 394.785899,2197.90632 C394.298516,2199.67016 393.614999,2202.51449 393.614308,2202.78167 C393.613185,2203.21246 394.013361,2203.52036 394.574348,2203.52036 C395.618873,2203.52036 396.884208,2202.80828 399.239722,2200.89486 C399.696521,2200.5238 399.781531,2200.33124 400.219927,2198.67455 C400.331738,2198.25202 400.491044,2197.66698 400.57394,2197.37446 C400.656836,2197.08194 400.754699,2196.68304 400.791413,2196.48803 C400.828126,2196.29302 400.989373,2195.65479 401.149739,2195.06975 C401.310105,2194.4847 401.551184,2193.55395 401.685472,2193.00142 C402.286113,2190.53002 403.291045,2186.60265 403.726845,2185.02356 C403.816545,2184.69854 404.161713,2183.28912 404.493884,2181.89152 C404.826056,2180.49392 405.159874,2179.21746 405.235702,2179.05495 L405.373573,2178.75947 L410.195479,2178.72861 C415.520941,2178.69453 415.292225,2178.66087 415.013484,2179.43759 C414.937377,2179.64967 414.753167,2180.30186 414.604132,2180.8869 C414.455096,2181.47194 414.218491,2182.32291 414.078342,2182.77795 C413.938195,2183.23298 413.64634,2184.29669 413.429777,2185.14176 C413.213215,2185.98682 412.953582,2186.97075 412.852816,2187.32828 C412.75205,2187.6858 412.59586,2188.29744 412.505727,2188.68747 C412.415594,2189.07749 412.236282,2189.7955 412.107259,2190.28304 C411.843128,2191.28109 410.97252,2194.63853 410.084509,2198.0836 C409.757773,2199.35119 409.398302,2200.78721 409.285682,2201.27474 C408.740976,2203.63282 408.196228,2205.85169 408.102937,2206.09231 L407.999324,2206.35955 L403.174219,2206.32869 L398.349115,2206.29783 L398.312122,2206.03478 C398.291778,2205.8901 398.416687,2205.26752 398.5897,2204.65127 C398.9324,2203.4306 398.915062,2203.02372 398.532119,2203.30007 C396.27927,2204.92584 394.600731,2205.85729 392.795139,2206.4836 C391.791076,2206.83189 391.527054,2206.87312 390.047382,2206.91271 C388.568653,2206.95228 388.335331,2206.92993 387.633591,2206.6815 L387.633591,2206.6815 Z M473.449264,2206.70433 C473.01768,2206.6545 472.364704,2206.50033 471.998211,2206.36172 C469.833032,2205.54286 469.028919,2204.01226 469.183623,2201.00421 C469.261424,2199.49134 469.538155,2198.11268 470.552722,2194.18332 C472.930787,2184.97313 473.51897,2182.64722 473.945017,2180.76871 C474.151417,2179.85865 474.394149,2178.99438 474.484447,2178.84812 L474.648592,2178.58219 L479.367082,2178.58219 C483.368264,2178.58219 484.107173,2178.60851 484.227703,2178.75532 C484.340675,2178.89291 484.322478,2179.08089 484.138989,2179.67129 C484.012023,2180.07986 483.824954,2180.73325 483.723294,2181.12328 C483.621622,2181.51331 483.375223,2182.40892 483.175732,2183.11353 C482.976241,2183.81814 482.572632,2185.33393 482.27884,2186.48196 C481.439369,2189.76222 480.997508,2191.46594 480.787253,2192.23318 C480.68038,2192.62321 480.495394,2193.31462 480.376173,2193.76965 C480.25694,2194.22469 480.043705,2195.02247 479.902296,2195.54251 C479.565051,2196.78274 479.34311,2197.64084 479.153335,2198.43817 C479.06825,2198.7957 478.881019,2199.51371 478.737279,2200.03374 C478.046936,2202.53129 478.022142,2202.80981 478.459064,2203.15721 C479.112165,2203.6765 480.114683,2203.36635 482.067999,2202.0407 C482.775391,2201.56062 483.604635,2200.93924 483.91075,2200.65988 C484.543409,2200.0825 484.225658,2201.12458 486.335984,2192.70594 C487.298331,2188.86687 488.004001,2186.07172 488.708163,2183.3098 C488.865598,2182.69226 489.165801,2181.46899 489.37527,2180.59143 C489.584738,2179.71386 489.834105,2178.86928 489.929417,2178.71457 L490.102717,2178.43329 L494.796324,2178.52014 C497.377809,2178.5679 499.529406,2178.63114 499.577636,2178.66066 C499.746096,2178.76376 499.662296,2179.28793 499.255893,2180.6732 C499.030685,2181.44078 498.769819,2182.33473 498.676153,2182.65976 C498.435367,2183.49534 497.63012,2186.45969 497.26349,2187.86013 C497.093333,2188.51018 496.875546,2189.33456 496.779548,2189.69208 C496.683538,2190.04961 496.456509,2190.92717 496.275027,2191.64223 C496.093534,2192.35728 495.777753,2193.58055 495.573285,2194.3606 C495.368818,2195.14066 495.125874,2196.07141 495.033419,2196.42894 C494.8409,2197.17339 494.623761,2197.97244 494.356122,2198.92125 C494.253689,2199.28444 494.122582,2199.8163 494.064812,2200.10315 C494.007041,2200.39 493.82657,2201.15655 493.663747,2201.8066 C493.500936,2202.45665 493.225078,2203.61353 493.050731,2204.37745 C492.876371,2205.14137 492.675371,2205.84473 492.604043,2205.94046 C492.493977,2206.08823 491.773066,2206.11651 487.831637,2206.12767 C485.278127,2206.1349 483.128937,2206.10336 483.055676,2206.05759 C482.907046,2205.96474 482.947306,2205.65974 483.234626,2204.70226 C483.662867,2203.27509 483.684406,2203.15684 483.542424,2203.01332 C483.450941,2202.92086 483.351751,2202.91358 483.240425,2202.99116 C480.74748,2204.7285 479.61686,2205.39432 478.267904,2205.91949 C476.734237,2206.51657 476.372958,2206.60011 474.643204,2206.75765 C474.41812,2206.77815 473.880848,2206.75415 473.449264,2206.70433 L473.449264,2206.70433 Z M513.162606,2206.0839 C512.469744,2205.74835 511.75144,2205.14277 511.645277,2204.8047 C511.567214,2204.55609 511.866133,2204.11131 512.111284,2204.11131 C512.184159,2204.11131 512.445736,2204.35551 512.692558,2204.65398 C513.491807,2205.62047 514.359615,2205.92294 514.865682,2205.41141 C515.282187,2204.9904 515.206694,2204.63118 514.282762,2202.63763 C514.032883,2202.09846 513.686484,2201.23883 513.512984,2200.72734 C512.853635,2198.78355 513.184657,2197.15166 514.481242,2195.95382 C515.399188,2195.1058 515.986112,2194.86864 517.329081,2194.8031 C518.363853,2194.7526 518.493625,2194.77195 519.057488,2195.06077 C519.694113,2195.38686 520.114684,2195.9838 519.972216,2196.3591 C519.878887,2196.60493 519.497403,2196.59989 519.293946,2196.35014 C518.9347,2195.90914 518.212878,2195.48341 517.824435,2195.48341 C517.299884,2195.48341 516.853421,2195.92458 516.853421,2196.44293 C516.853421,2196.65825 517.075411,2197.26097 517.366909,2197.83704 C518.148373,2199.3814 518.470938,2200.22686 518.681292,2201.28208 C518.844253,2202.09963 518.850913,2202.34452 518.725618,2202.91182 C518.522747,2203.83027 518.126833,2204.54974 517.468793,2205.19581 C516.687804,2205.96257 515.967828,2206.26046 514.748756,2206.3212 C513.877144,2206.36463 513.682031,2206.33544 513.162606,2206.08389 L513.162606,2206.0839 Z M495.266746,2205.94934 C495.20037,2205.77452 495.404289,2204.86926 496.053536,2202.45665 C496.25471,2201.70909 496.485955,2200.80494 496.567423,2200.44741 C496.648891,2200.08988 496.926607,2198.99958 497.184567,2198.02451 C497.442527,2197.04944 497.952486,2195.08157 498.31778,2193.65146 C498.683075,2192.22136 499.157264,2190.38645 499.371535,2189.57389 C499.585805,2188.76134 500.009045,2187.11258 500.312079,2185.90999 C500.615101,2184.70741 501.06245,2182.95228 501.306155,2182.00971 C502.27344,2178.26882 502.951909,2175.59721 503.404022,2173.74897 C503.664689,2172.68332 503.943776,2171.67279 504.024184,2171.50336 L504.170382,2171.19529 L508.904174,2171.23874 C511.50776,2171.26264 513.677429,2171.30567 513.725659,2171.33436 C513.84776,2171.407 513.835051,2171.81969 513.697434,2172.25061 C513.531905,2172.76889 512.900019,2175.02759 512.570881,2176.27748 C512.416825,2176.86252 512.11081,2177.97942 511.890852,2178.75947 C511.670907,2179.53953 511.347618,2180.73621 511.172423,2181.41876 C510.99724,2182.10131 510.598196,2183.64369 510.285658,2184.84628 C509.97312,2186.04887 509.538704,2187.72421 509.320293,2188.56928 C509.10187,2189.41434 508.808813,2190.53124 508.669026,2191.05127 C508.529251,2191.57131 508.344365,2192.28932 508.25817,2192.64684 C508.066462,2193.44207 507.841478,2194.29869 507.497685,2195.54251 C507.353944,2196.06255 507.170018,2196.78055 507.088987,2197.13808 C507.007931,2197.4956 506.861571,2198.08065 506.763752,2198.43817 C506.395302,2199.78475 505.993726,2201.40104 505.515733,2203.46126 C505.244266,2204.63135 504.975555,2205.70836 504.91862,2205.85462 L504.815076,2206.12055 L500.073414,2206.12055 C496.041325,2206.12055 495.321998,2206.09493 495.266746,2205.94934 L495.266746,2205.94934 Z M508.947877,2198.26913 C508.837574,2197.97856 508.975278,2197.90654 509.946093,2197.74708 C510.423611,2197.66865 510.991927,2197.49352 511.209016,2197.35791 C511.616766,2197.10318 512.023568,2196.58964 511.909186,2196.47402 C511.873417,2196.43787 511.554169,2196.46914 511.199737,2196.54352 C509.156248,2196.97233 508.142068,2195.27725 509.287217,2193.34697 C510.221289,2191.7725 512.324233,2191.45158 513.17655,2192.75345 C513.4725,2193.20549 513.487853,2193.29658 513.442093,2194.32878 C513.399227,2195.29578 513.347255,2195.51171 512.999234,2196.16923 C512.781721,2196.58017 512.332626,2197.16572 511.997539,2197.47528 C511.341694,2198.08117 510.778754,2198.30938 509.694194,2198.40901 C509.135482,2198.46034 509.011646,2198.43713 508.947877,2198.26913 L508.947877,2198.26913 Z" id="path3382"></path>
        </g>
    </g>
</svg>