<?xml version="1.0" encoding="UTF-8"?>
<svg width="200px" height="45px" viewBox="0 0 200 45" version="1.1" xmlns="http://www.w3.org/2000/svg" xmlns:xlink="http://www.w3.org/1999/xlink">
    <!-- Generator: Sketch 62 (91390) - https://sketch.com -->
    <title>Group 6 Copy</title>
    <desc>Created with Sketch.</desc>
    <g id="Website" stroke="none" stroke-width="1" fill="none" fill-rule="evenodd">
        <g id="Malibu" transform="translate(-120.000000, -68.000000)" fill-rule="nonzero">
            <g id="Group-6-Copy" transform="translate(120.000000, 68.000000)">
                <g id="setmedicla-copy-5" transform="translate(0.000000, 15.301455)">
                    <path d="M8.78303199,29.22909 C11.4812239,29.22909 13.5605007,28.6016445 15.0208623,27.3467536 C16.4812239,26.0918626 17.2114047,24.4210246 17.2114047,22.3342396 C17.2114047,20.6422517 16.689847,19.2745615 15.6467316,18.231169 C14.6036161,17.1877765 13.0528512,16.567381 10.9944367,16.3699824 L10.9944367,16.3699824 L8.82475661,16.1584839 C7.60083449,16.0456847 6.74547983,15.8130364 6.25869263,15.4605389 C5.77190542,15.1080415 5.52851182,14.621595 5.52851182,14.0011994 C5.52851182,13.3808039 5.79276773,12.8732075 6.32127955,12.4784104 C6.84979138,12.0836132 7.60083449,11.8862146 8.5744089,11.8862146 C10.4937413,11.8862146 12.2461752,12.4502106 13.8317107,13.5782025 C14.054242,13.7192014 14.2489569,13.6910017 14.4158554,13.4936031 L14.4158554,13.4936031 L16.4603616,10.997921 C16.6272601,10.7723226 16.5994437,10.574924 16.3769124,10.4057253 C14.2906815,8.7419372 11.7732962,7.91004318 8.82475661,7.91004318 C6.34909597,7.91004318 4.42976356,8.48108908 3.06675939,9.62318087 C1.70375522,10.7652727 1.02225313,12.3374114 1.02225313,14.339597 C1.02225313,17.9209713 3.08066759,19.9231569 7.19749652,20.3461538 L7.19749652,20.3461538 L9.36717663,20.5576523 C10.6189152,20.6704515 11.488178,20.9101498 11.9749652,21.2767472 C12.4617524,21.6433445 12.705146,22.1509409 12.705146,22.7995362 C12.705146,23.532731 12.3852573,24.1178768 11.7454798,24.5549736 C11.1057024,24.9920705 10.1877608,25.2106189 8.99165508,25.2106189 C7.96244784,25.2106189 6.9123783,24.9920705 5.84144645,24.5549736 C4.7705146,24.1178768 3.85952712,23.5609308 3.10848401,22.8841356 C2.91376912,22.686737 2.71905424,22.686737 2.52433936,22.8841356 L2.52433936,22.8841356 L0.146036161,25.4221174 C-0.0486787204,25.619516 -0.0486787204,25.8169145 0.146036161,26.0143131 C2.42698192,28.1574977 5.30598053,29.22909 8.78303199,29.22909 Z M30.6215304,29.22909 C34.1820311,29.22909 36.9358558,28.0728983 38.8830046,25.760515 C39.0499031,25.5349166 39.0359949,25.337518 38.84128,25.1683192 L38.84128,25.1683192 L36.3795276,22.968735 C36.1848127,22.7995362 35.9761896,22.827736 35.7536583,23.0533344 C34.585369,24.3505251 33.0137418,24.9991204 31.0387766,24.9991204 C28.7300144,24.9991204 27.2279282,23.9698278 26.5325179,21.9112426 C26.337803,21.3754465 26.2404455,20.8537502 26.2404455,20.3461538 C26.2404455,20.1769551 26.3238948,20.0923557 26.4907932,20.0923557 L26.4907932,20.0923557 L38.8830046,20.0923557 C39.1889852,20.0923557 39.3419754,19.9513567 39.3419754,19.6693587 C39.3419754,16.9621782 39.1194441,14.9176928 38.6743816,13.5359028 C38.1180533,11.7875153 37.1166625,10.4127752 35.6702091,9.41168239 C34.2237557,8.41058958 32.4713218,7.91004318 30.4129073,7.91004318 C28.4101256,7.91004318 26.678554,8.40353963 25.2181924,9.39053254 C23.7578308,10.3775255 22.7494859,11.7593155 22.1931576,13.5359028 C21.7480951,14.9458926 21.5255638,16.6237806 21.5255638,18.5695666 C21.5255638,20.4025534 21.7620033,22.0663415 22.2348823,23.5609308 C22.7912105,25.337518 23.7995554,26.726358 25.259917,27.7274508 C26.7202786,28.7285436 28.5074831,29.22909 30.6215304,29.22909 Z M34.376746,16.5391812 L26.4907932,16.5391812 C26.3238948,16.5391812 26.2404455,16.4545818 26.2404455,16.285383 C26.2404455,15.6367877 26.3238948,15.0586918 26.4907932,14.5510955 C27.0749379,12.802708 28.3962174,11.9285143 30.4546319,11.9285143 C31.4003899,11.9285143 32.220974,12.1611626 32.9163843,12.6264593 C33.6117946,13.091756 34.0985818,13.7333013 34.376746,14.5510955 C34.5436444,15.0586918 34.6270937,15.6367877 34.6270937,16.285383 C34.6270937,16.4545818 34.5436444,16.5391812 34.376746,16.5391812 L34.376746,16.5391812 Z M52.7103765,29.0175916 C52.9885406,29.0175916 53.1276226,28.8765926 53.1276226,28.5945946 L53.1276226,28.5945946 L53.1276226,25.2106189 C53.1276226,24.9286209 52.9885406,24.7876219 52.7103765,24.7876219 L52.7103765,24.7876219 L51.667261,24.7876219 C50.9996672,24.7876219 50.5198341,24.646623 50.2277617,24.364625 C49.9356894,24.082627 49.7896532,23.5891306 49.7896532,22.8841356 L49.7896532,22.8841356 L49.7896532,12.3092116 C49.7896532,12.1400128 49.8731025,12.0554134 50.040001,12.0554134 L50.040001,12.0554134 L52.7103765,12.0554134 C52.9885406,12.0554134 53.1276226,11.9144144 53.1276226,11.6324164 L53.1276226,11.6324164 L53.1276226,8.7983368 C53.1276226,8.51633882 52.9885406,8.37533984 52.7103765,8.37533984 L52.7103765,8.37533984 L50.040001,8.37533984 C49.8731025,8.37533984 49.7896532,8.29074044 49.7896532,8.12154166 L49.7896532,8.12154166 L49.7896532,2.53798177 C49.7896532,2.25598379 49.6505712,2.11498481 49.3724071,2.11498481 L49.3724071,2.11498481 L45.5337423,2.11498481 C45.2555781,2.11498481 45.1164961,2.25598379 45.1164961,2.53798177 L45.1164961,2.53798177 L45.1164961,8.12154166 C45.1164961,8.29074044 45.0330468,8.37533984 44.8661484,8.37533984 L44.8661484,8.37533984 L43.5309606,8.37533984 C43.2527965,8.37533984 43.1137144,8.51633882 43.1137144,8.7983368 L43.1137144,8.7983368 L43.1137144,11.6324164 C43.1137144,11.9144144 43.2527965,12.0554134 43.5309606,12.0554134 L43.5309606,12.0554134 L44.8661484,12.0554134 C45.0330468,12.0554134 45.1164961,12.1400128 45.1164961,12.3092116 L45.1164961,12.3092116 L45.1164961,23.0533344 C45.1164961,25.0837198 45.5546046,26.585359 46.4308215,27.558252 C47.3070385,28.5311451 48.7326296,29.0175916 50.7075948,29.0175916 L50.7075948,29.0175916 L52.7103765,29.0175916 Z M62.9494312,28.7637934 C63.2275953,28.7637934 63.3666774,28.6227944 63.3666774,28.3407964 L63.3666774,28.3407964 L63.3666774,16.5814809 C63.3666774,15.2560904 63.7074284,14.1844981 64.3889305,13.366704 C65.0704326,12.5489099 66.0092365,12.1400128 67.2053422,12.1400128 C68.4292643,12.1400128 69.3680682,12.5418599 70.0217539,13.3455541 C70.6754395,14.1492484 71.0022824,15.2278906 71.0022824,16.5814809 L71.0022824,16.5814809 L71.0022824,28.3407964 C71.0022824,28.6227944 71.1413644,28.7637934 71.4195285,28.7637934 L71.4195285,28.7637934 L75.2581934,28.7637934 C75.5363575,28.7637934 75.6754395,28.6227944 75.6754395,28.3407964 L75.6754395,28.3407964 L75.6754395,16.5814809 C75.6754395,15.2560904 76.0161906,14.1844981 76.6976927,13.366704 C77.3791948,12.5489099 78.3179986,12.1400128 79.5141043,12.1400128 C80.7380265,12.1400128 81.6768304,12.5418599 82.330516,13.3455541 C82.9842017,14.1492484 83.3110445,15.2278906 83.3110445,16.5814809 L83.3110445,16.5814809 L83.3110445,28.3407964 C83.3110445,28.6227944 83.4501266,28.7637934 83.7282907,28.7637934 L83.7282907,28.7637934 L87.5669555,28.7637934 C87.8451196,28.7637934 87.9842017,28.6227944 87.9842017,28.3407964 L87.9842017,28.3407964 L87.9842017,15.4816888 C87.9842017,13.2539048 87.3374701,11.4350179 86.044007,10.025028 C84.7505438,8.61503812 82.9633394,7.91004318 80.6823936,7.91004318 C78.0398345,7.91004318 75.8979708,8.8124367 74.2568025,10.6172237 L74.2568025,10.6172237 L74.2150779,10.6172237 C72.9633394,8.8124367 71.1274562,7.91004318 68.7074284,7.91004318 C66.2595842,7.91004318 64.493242,8.69963751 63.408402,10.2788262 L63.408402,10.2788262 L63.3666774,10.2788262 L63.3666774,8.7983368 C63.3666774,8.51633882 63.2275953,8.37533984 62.9494312,8.37533984 L62.9494312,8.37533984 L59.1107664,8.37533984 C58.8326023,8.37533984 58.6935202,8.51633882 58.6935202,8.7983368 L58.6935202,8.7983368 L58.6935202,28.3407964 C58.6935202,28.6227944 58.8326023,28.7637934 59.1107664,28.7637934 L59.1107664,28.7637934 L62.9494312,28.7637934 Z M102.353994,29.22909 C105.914494,29.22909 108.668319,28.0728983 110.615468,25.760515 C110.782366,25.5349166 110.768458,25.337518 110.573743,25.1683192 L110.573743,25.1683192 L108.111991,22.968735 C107.917276,22.7995362 107.708653,22.827736 107.486122,23.0533344 C106.317832,24.3505251 104.746205,24.9991204 102.77124,24.9991204 C100.462478,24.9991204 98.9603913,23.9698278 98.264981,21.9112426 C98.0702662,21.3754465 97.9729087,20.8537502 97.9729087,20.3461538 C97.9729087,20.1769551 98.056358,20.0923557 98.2232564,20.0923557 L98.2232564,20.0923557 L110.615468,20.0923557 C110.921448,20.0923557 111.074439,19.9513567 111.074439,19.6693587 C111.074439,16.9621782 110.851907,14.9176928 110.406845,13.5359028 C109.850517,11.7875153 108.849126,10.4127752 107.402672,9.41168239 C105.956219,8.41058958 104.203785,7.91004318 102.14537,7.91004318 C100.142589,7.91004318 98.4110172,8.40353963 96.9506556,9.39053254 C95.490294,10.3775255 94.4819491,11.7593155 93.9256208,13.5359028 C93.4805582,14.9458926 93.2580269,16.6237806 93.2580269,18.5695666 C93.2580269,20.4025534 93.4944664,22.0663415 93.9673454,23.5609308 C94.5236737,25.337518 95.5320186,26.726358 96.9923802,27.7274508 C98.4527418,28.7285436 100.239946,29.22909 102.353994,29.22909 Z M106.109209,16.5391812 L98.2232564,16.5391812 C98.056358,16.5391812 97.9729087,16.4545818 97.9729087,16.285383 C97.9729087,15.6367877 98.056358,15.0586918 98.2232564,14.5510955 C98.8074011,12.802708 100.128681,11.9285143 102.187095,11.9285143 C103.132853,11.9285143 103.953437,12.1611626 104.648848,12.6264593 C105.344258,13.091756 105.831045,13.7333013 106.109209,14.5510955 C106.276108,15.0586918 106.359557,15.6367877 106.359557,16.285383 C106.359557,16.4545818 106.276108,16.5391812 106.109209,16.5391812 L106.109209,16.5391812 Z M123.149377,29.22909 C125.597221,29.22909 127.377471,28.4253958 128.490128,26.8180074 L128.490128,26.8180074 L128.531852,26.8180074 L128.531852,28.3407964 C128.531852,28.6227944 128.670934,28.7637934 128.949098,28.7637934 L128.949098,28.7637934 L132.787763,28.7637934 C133.065927,28.7637934 133.205009,28.6227944 133.205009,28.3407964 L133.205009,28.3407964 L133.205009,0.422996961 C133.205009,0.140998987 133.065927,0 132.787763,0 L132.787763,0 L128.949098,0 C128.670934,0 128.531852,0.140998987 128.531852,0.422996961 L128.531852,0.422996961 L128.531852,10.3211259 L128.490128,10.3211259 C127.377471,8.71373741 125.597221,7.91004318 123.149377,7.91004318 C119.561059,7.91004318 117.238389,9.54563143 116.181365,12.8168079 C115.708486,14.2831974 115.472047,16.2007836 115.472047,18.5695666 C115.472047,20.9383496 115.708486,22.8559358 116.181365,24.3223253 C117.238389,27.5935018 119.561059,29.22909 123.149377,29.22909 Z M124.35939,24.9991204 C122.440058,24.9991204 121.202228,24.1249267 120.645899,22.3765393 C120.367735,21.5023455 120.228653,20.2333547 120.228653,18.5695666 C120.228653,16.9057786 120.367735,15.6367877 120.645899,14.762594 C121.202228,13.0142065 122.440058,12.1400128 124.35939,12.1400128 C126.306539,12.1400128 127.558278,13.0142065 128.114606,14.762594 C128.39277,15.6367877 128.531852,16.9057786 128.531852,18.5695666 C128.531852,20.2333547 128.39277,21.5023455 128.114606,22.3765393 C127.558278,24.1249267 126.306539,24.9991204 124.35939,24.9991204 Z M144.028209,29.0457914 C144.306373,29.0457914 144.445455,28.901477 144.445455,28.6128484 L144.445455,28.6128484 L144.445455,8.6108842 C144.445455,8.32225557 144.306373,8.17794125 144.028209,8.17794125 L144.028209,8.17794125 L140.189544,8.17794125 C139.91138,8.17794125 139.772298,8.32225557 139.772298,8.6108842 L139.772298,8.6108842 L139.772298,28.6128484 C139.772298,28.901477 139.91138,29.0457914 140.189544,29.0457914 L140.189544,29.0457914 L144.028209,29.0457914 Z M158.856971,29.22909 C161.777695,29.22909 164.100365,28.1856975 165.824982,26.0989125 C165.964065,25.8451143 165.950156,25.6477158 165.783258,25.5067168 L165.783258,25.5067168 L163.154607,23.1802335 C162.932076,23.0110347 162.737361,23.0251346 162.570462,23.2225332 C161.541255,24.4069247 160.303425,24.9991204 158.856971,24.9991204 C156.937639,24.9991204 155.6859,24.1249267 155.101756,22.3765393 C154.823592,21.5305453 154.68451,20.2615545 154.68451,18.5695666 C154.68451,16.9057786 154.823592,15.6508876 155.101756,14.8048937 C155.6859,13.0283064 156.937639,12.1400128 158.856971,12.1400128 C160.303425,12.1400128 161.541255,12.7322085 162.570462,13.9166 C162.737361,14.1421984 162.932076,14.1703982 163.154607,14.0011994 L163.154607,14.0011994 L165.783258,11.6747161 C165.977973,11.5055174 165.991881,11.3081188 165.824982,11.0825204 C164.100365,8.96753558 161.777695,7.91004318 158.856971,7.91004318 C156.826373,7.91004318 155.080893,8.39648968 153.620532,9.3693827 C152.16017,10.3422757 151.137917,11.7311157 150.553772,13.5359028 C150.136526,14.8048937 149.927903,16.4827816 149.927903,18.5695666 C149.927903,20.6563516 150.136526,22.3342396 150.553772,23.6032304 C151.137917,25.4080175 152.16017,26.7968575 153.620532,27.7697505 C155.080893,28.7426435 156.826373,29.22909 158.856971,29.22909 Z" id="setmedic" fill="#181D2A"></path>
                    <path d="M178.567514,29.0175916 C178.845678,29.0175916 178.98476,28.8765926 178.98476,28.5945946 L178.98476,28.5945946 L178.98476,25.2106189 C178.98476,24.9286209 178.845678,24.7876219 178.567514,24.7876219 L178.567514,24.7876219 L177.649573,24.7876219 C177.037612,24.7876219 176.592549,24.646623 176.314385,24.364625 C176.036221,24.082627 175.897139,23.6032304 175.897139,22.9264353 L175.897139,22.9264353 L175.897139,0.422996961 C175.897139,0.140998987 175.758057,0 175.479893,0 L175.479893,0 L171.641228,0 C171.363064,0 171.223982,0.140998987 171.223982,0.422996961 L171.223982,0.422996961 L171.223982,23.1802335 C171.223982,25.1824191 171.655136,26.6558585 172.517445,27.6005517 C173.379753,28.5452449 174.784482,29.0175916 176.731631,29.0175916 L176.731631,29.0175916 L178.567514,29.0175916 Z M189.766235,29.22909 C192.464427,29.22909 194.355943,28.4394957 195.440783,26.8603071 L195.440783,26.8603071 L195.482508,26.8603071 L195.482508,28.3407964 C195.482508,28.6227944 195.62159,28.7637934 195.899754,28.7637934 L195.899754,28.7637934 L199.404622,28.7637934 C199.682786,28.7637934 199.821868,28.6227944 199.821868,28.3407964 L199.821868,28.3407964 L199.821868,15.0163921 C199.821868,12.5066102 199.182091,10.6947732 197.902536,9.58088118 C196.622981,8.46698918 194.467209,7.91004318 191.43522,7.91004318 C188.48668,7.91004318 186.108377,8.57273842 184.30031,9.8981289 C184.105595,10.0391279 184.077779,10.2224266 184.216861,10.4480249 L184.216861,10.4480249 L185.760672,13.2398049 C185.899754,13.4936031 186.094469,13.5218029 186.344817,13.3244043 C187.513106,12.393811 189.043008,11.9285143 190.934524,11.9285143 C192.575693,11.9285143 193.730074,12.1964124 194.397668,12.7322085 C195.065262,13.2680047 195.399059,14.1280985 195.399059,15.31249 L195.399059,15.31249 L195.399059,16.285383 C195.399059,16.4545818 195.315609,16.5391812 195.148711,16.5391812 L195.148711,16.5391812 L191.059698,16.5391812 C188.500588,16.5391812 186.518669,17.0749773 185.11394,18.1465696 C183.709212,19.2181619 183.006847,20.8396503 183.006847,23.0110347 C183.006847,25.0414201 183.646625,26.585359 184.92618,27.6428514 C186.205734,28.7003438 187.819086,29.22909 189.766235,29.22909 Z M190.934524,25.3798177 C188.625762,25.3798177 187.471381,24.5338238 187.471381,22.8418359 C187.471381,21.0088491 188.917835,20.0923557 191.810741,20.0923557 L191.810741,20.0923557 L195.148711,20.0923557 C195.315609,20.0923557 195.399059,20.1769551 195.399059,20.3461538 L195.399059,20.3461538 L195.399059,21.9112426 C195.399059,24.223626 193.91088,25.3798177 190.934524,25.3798177 Z" id="la" fill="#AB0B0B"></path>
                </g>
                <g id="Group-3-Copy-11" transform="translate(133.333333, 0.000000)" fill="#AB0B0B">
                    <g id="Asset-2">
                        <path d="M11.3087764,12.7709432 C11.2928513,12.8014768 11.3011324,12.8331178 11.3011324,12.8634932 C11.3011324,14.4849893 11.3016632,16.1064854 11.3027249,17.7279815 C11.3027249,17.8092989 11.2815445,17.8268607 11.2022374,17.8268607 C9.74254102,17.8243284 8.28273849,17.8236428 6.82282979,17.824803 C6.70100263,17.824803 6.71915727,17.8352445 6.71915727,17.71754 C6.71915727,16.1013174 6.71915727,14.4850948 6.71915727,12.8688721 L6.71915727,12.7739491 C6.67934447,12.768412 6.65689006,12.7948322 6.63093211,12.8100199 C5.24778249,13.6212953 3.86511062,14.4334145 2.4829165,15.2463774 C2.42431206,15.2808661 2.39835412,15.2833974 2.36013383,15.2174259 C1.62683521,13.9528403 0.891253987,12.6901532 0.153390163,11.4293646 C0.119788163,11.3719361 0.128387727,11.350262 0.1852404,11.318621 C1.57104421,10.5381429 2.95605177,9.75682096 4.34026307,8.97465528 L4.42992148,8.92418787 C4.39600098,8.90330481 4.37243181,8.88811712 4.34838488,8.87387867 C2.96332424,8.0607048 1.57783893,7.24800555 0.19192895,6.43578092 C0.131254248,6.40034299 0.120425168,6.37677044 0.157689945,6.31301381 C0.894173592,5.05401816 1.62864006,3.79391508 2.36108934,2.53270456 C2.3958061,2.47274485 2.41746426,2.46546742 2.47861671,2.50106355 C3.86250951,3.31613588 5.24735782,4.12967889 6.63316163,4.94169259 C6.65768631,4.95608925 6.68237024,4.97001129 6.70896519,4.98535718 C6.72648282,4.95007746 6.71867952,4.91843645 6.71867952,4.88837749 C6.71867952,3.29841692 6.71820176,1.70850908 6.71724625,0.118653971 C6.71724625,0.0395514548 6.73938217,0.0248371448 6.81438948,0.0248371448 C8.24499596,0.0270532572 9.67554935,0.0270532572 11.1060497,0.0248371448 C11.1818532,0.0248371448 11.2030336,0.0419245302 11.2030336,0.119761406 C11.2004856,1.70708523 11.1998486,3.29440906 11.2011226,4.88173288 L11.2011226,4.97902898 C11.2406169,4.98266769 11.2637083,4.95846232 11.2891885,4.94374926 C12.7052501,4.13163009 14.1208869,3.31866716 15.5360991,2.50486048 C15.5948628,2.4711628 15.6219355,2.46815691 15.6604743,2.53460302 C16.3923927,3.79612995 17.1266469,5.05649671 17.8632367,6.3157033 C17.8979534,6.37503018 17.8938129,6.39781171 17.8328197,6.43356605 C16.4379917,7.24906025 15.0435352,8.0668748 13.6494503,8.88700969 L13.601675,8.9156448 C13.6129818,8.94902606 13.6451506,8.95440503 13.668879,8.96785246 C15.0509669,9.74833062 16.4333203,10.5288088 17.8159391,11.3092869 C17.9051198,11.3595961 17.9049605,11.3594379 17.8517706,11.4507222 C17.121657,12.704128 16.3920742,13.9577974 15.6630223,15.2117305 C15.6246428,15.2778602 15.6005959,15.2832391 15.5348251,15.2444789 C14.1533742,14.4304613 12.7708085,13.6183421 11.387128,12.8081214 C11.3626033,12.793883 11.3411044,12.7723671 11.3087764,12.7709432 Z" id="Path"></path>
                    </g>
                </g>
            </g>
        </g>
    </g>
</svg>