<?xml version="1.0" encoding="UTF-8"?>
<svg width="161px" height="25px" viewBox="0 0 161 25" version="1.1" xmlns="http://www.w3.org/2000/svg" xmlns:xlink="http://www.w3.org/1999/xlink">
    <!-- Generator: Sketch 62 (91390) - https://sketch.com -->
    <title>SVG Layer</title>
    <desc>Created with Sketch.</desc>
    <g id="Website" stroke="none" stroke-width="1" fill="none" fill-rule="evenodd">
        <g id="Set-Medic-LA" transform="translate(-657.000000, -2183.000000)" fill="#FFFFFF">
            <g id="SVG-Layer" transform="translate(657.000000, 2182.000000)">
                <path d="M109.782041,1.35 C117.950463,1.35 123.753116,5.60925 123.753116,13.5 C123.753116,21.0519 118.365603,25.65 109.782041,25.65 C101.390083,25.65 95.7883471,21.2436 95.7883471,13.5 C95.7883471,5.85495 101.320893,1.35 109.782041,1.35 L109.782041,1.35 Z M109.782041,20.63205 C114.146339,20.63205 116.717017,17.7714 116.717017,13.5 C116.717017,9.0126 113.998645,6.372 109.782041,6.372 C105.328595,6.372 102.821785,9.22455 102.821785,13.5 C102.821785,17.5851 105.24876,20.62935 109.782041,20.62935 L109.782041,20.63205 Z M57.9200826,1.35 L44.2616942,1.35 L44.2616942,3.22785 C44.1949091,4.11534771 44.5170561,4.98759612 45.1422368,5.61201547 C45.7674175,6.23643481 46.6320717,6.54954241 47.5056446,6.46785 L56.2262562,6.46785 C59.8680496,6.46785 61.1666942,7.6275 61.1666942,10.4949 L61.1666942,10.8999 L51.9378017,10.8999 C45.0946364,10.8999 42.563876,14.0184 42.563876,18.26415 C42.563876,23.39415 46.0632975,25.65135 51.9577603,25.65135 L58.0983802,25.65135 C66.1284215,25.65135 67.8461983,21.708 67.8461983,16.4835 L67.8461983,10.44225 C67.8461983,4.8276 65.7305785,1.35 57.9200826,1.35 Z M61.1666942,16.54155 C61.1666942,18.9945 60.0050992,20.87235 56.6826446,20.87235 L53.2018512,20.87235 C50.7855207,20.87235 49.3325289,20.23515 49.3325289,18.2817 C49.3325289,16.41195 50.6710909,15.68295 53.2018512,15.68295 L61.1666942,15.68295 L61.1666942,16.54155 L61.1666942,16.54155 Z M85.9846446,6.44625 L89.329719,6.44625 C91.7247603,6.44625 93.1351736,5.5917 93.1351736,3.40065 L93.1351736,1.35 L83.6215372,1.35 C75.6500413,1.35 71.8326116,6.03045 71.8326116,13.5 C71.8326116,22.815 77.6485702,25.65 83.6215372,25.65 L93.1404959,25.65 L93.1404959,23.57775 C93.1404959,21.41775 91.6582314,20.5551 89.4960413,20.5551 L85.9899669,20.5551 C82.1898347,20.5551 78.6850909,19.2051 78.6850909,13.4973 C78.6797686,8.5482 81.3369339,6.44355 85.9846446,6.44355 L85.9846446,6.44625 Z M14.1613471,19.008 C14.1613471,19.008 8.45316529,4.2606 8.13382645,3.4101 C7.74082624,1.99416893 6.35955924,1.10605445 4.92979339,1.35 L0,1.35 L10.1270331,25.65 L17.4931157,25.65 L27.9421488,1.35 L23.616438,1.35 C22.2706625,1.17292882 20.9902901,1.98951386 20.5640909,3.2967 L14.2651322,19.0107 L14.1573554,19.0107 L14.1613471,19.008 Z M143.666554,18.7866 C143.666554,18.7866 139.513818,6.95655 138.751397,4.72095 C138.325329,2.5477054 136.319237,1.07578338 134.151587,1.34595 L126.419595,1.34595 L126.419595,25.65 L129.047488,25.65 C131.016744,25.65 132.278132,24.76845 132.278132,22.734 L132.278132,5.74695 L132.383248,5.74695 L139.883719,25.65 L146.903851,25.65 L154.409645,5.7456 L154.516091,5.7456 L154.516091,22.74615 C154.516091,24.47145 155.447496,25.6527 157.762702,25.6527 L161,25.6527 L161,1.35 L153.753669,1.35 C151.188314,1.35 149.612909,2.052 148.830529,4.3389 C148.318256,5.8239 143.774331,18.7839 143.774331,18.7839 L143.65857,18.7839 L143.666554,18.7866 Z M31.9338843,1.35 L31.9338843,22.79745 C31.865988,23.5910945 32.1544945,24.3734799 32.7191631,24.9270054 C33.2838318,25.4805309 34.064432,25.7461546 34.8438595,25.65 L38.5947603,25.65 L38.5947603,1.35 L31.9418678,1.35 L31.9338843,1.35 Z" id="Shape"></path>
            </g>
        </g>
    </g>
</svg>