<?xml version="1.0" encoding="UTF-8"?>
<svg width="43px" height="54px" viewBox="0 0 43 54" version="1.1" xmlns="http://www.w3.org/2000/svg" xmlns:xlink="http://www.w3.org/1999/xlink">
    <!-- Generator: Sketch 62 (91390) - https://sketch.com -->
    <title>SVG Layer</title>
    <desc>Created with Sketch.</desc>
    <g id="Page-1" stroke="none" stroke-width="1" fill="none" fill-rule="evenodd">
        <g id="Artboard" transform="translate(-65.000000, 0.000000)" fill="#FFFFFF" fill-rule="nonzero">
            <g id="SVG-Layer" transform="translate(65.000000, 0.000000)">
                <path d="M31.8459827,23.035213 C30.6631637,23.035213 29.5886944,23.4873417 26.2780048,25.8534818 L26.2780048,38.5869329 C32.0175367,32.1636913 33.6518134,27.7690003 33.6518134,25.5143852 C33.6457939,23.9364561 32.9144325,23.035213 31.8459827,23.035213 Z M32.2974404,14.5834206 C32.2974404,12.3227772 29.7090832,10.4690496 26.2780048,10.2444923 L26.2780048,22.0209376 C30.6074839,19.4860028 32.2959355,16.9435324 32.2959355,14.5834206 L32.2974404,14.5834206 Z M42.4853351,9.58589151 C42.4296553,9.36133426 42.3724706,9.2769369 42.2596062,9.24830209 L38.2025066,8.17675709 L37.6396895,5.86637947 C37.6110971,5.7533473 37.5825048,5.66894995 37.4711452,5.64182223 L33.3056958,4.51451468 L32.8000633,2.31566216 C32.7932234,2.18285817 32.7022983,2.06933643 32.5743344,2.03383526 L21.7604185,0.0248767796 C21.5833775,-0.00829225986 21.4017296,-0.00829225986 21.2246886,0.0248767796 L10.4062581,2.03383526 C10.2782942,2.06933643 10.1873691,2.18285817 10.1805293,2.31566216 L9.67339184,4.51451468 L5.50944729,5.64031514 C5.39658288,5.66744285 5.36949541,5.75184021 5.34090309,5.86487238 L4.77808587,8.17525 L0.731520315,9.24830209 C0.620160756,9.2769369 0.562976119,9.36133426 0.50729634,9.58589151 C0.165633843,11.3882616 -0.00417576593,13.2190775 7.79681224e-05,15.0536345 C7.79681224e-05,31.2850546 8.44241727,45.3763988 21.0486202,53.7739356 C21.1551949,53.9162465 21.3224534,54 21.500078,54 C21.6777024,54 21.8449609,53.9162465 21.9515354,53.7739356 C34.5577384,45.3763988 42.9999984,31.2850546 42.9999984,15.0536345 C43.0006042,13.218825 42.8277778,11.3880776 42.4838302,9.58589151 L42.4853351,9.58589151 Z M19.9124518,46.3077839 C19.9124518,46.420816 19.7995873,46.4765786 19.6882277,46.3635465 C16.592733,42.8143362 14.5115132,38.4754079 13.1044701,33.7416204 L10.9660656,35.0980066 C10.4032484,35.4928655 9.95329559,35.3240708 9.61169263,34.7046545 C6.74192672,29.6332778 4.88493085,21.2915034 4.71638666,15.4334226 C4.7082532,15.1613476 4.80965624,14.8974164 4.99779527,14.7009741 C5.76398998,13.7822953 6.59102108,12.9162723 7.47328814,12.1087696 C7.64183233,11.9399749 7.81188139,12.0515 7.81188139,12.3333269 C7.81188139,19.5462865 9.0488754,26.2513551 11.0187357,30.647553 C11.1872799,30.9851425 11.3558241,30.9851425 11.5815529,30.8163477 L12.2000499,30.4214888 C11.0187357,25.1813171 10.3430541,18.1944218 10.5115982,10.1359814 C10.5115982,9.85415455 10.5687829,9.74112237 10.7373271,9.62959728 C11.5996956,9.09103019 12.5022813,8.61991985 13.4370439,8.22046286 C13.7184525,8.10743069 13.7756372,8.16470032 13.7756372,8.38925758 C13.6161221,20.1084333 14.5762221,28.2196221 16.6544322,34.7001332 C16.710112,34.8689279 16.8786562,34.8116584 16.8786562,34.6428637 C16.7657918,32.2767234 16.7657918,30.1924101 16.7657918,27.6559682 L16.6544322,7.42622347 C16.6544322,7.20166621 16.710112,7.08863403 16.9358408,7.03287151 C17.8616631,6.80400464 18.8010879,6.63436486 19.7484221,6.52498028 C19.7947003,6.51898633 19.8411367,6.53483211 19.8741328,6.56787732 C19.9071291,6.60092252 19.9229513,6.64742798 19.9169664,6.69377498 L19.9124518,46.3077839 Z M23.2893551,46.3635465 C23.1764906,46.4765786 23.0636263,46.420816 23.0636263,46.3077839 L23.0636263,6.69528207 C23.0576412,6.64893509 23.0734635,6.60242963 23.1064596,6.56938441 C23.1394558,6.53633921 23.1858922,6.52049342 23.2321704,6.52648737 C30.7715135,7.0343786 35.6111397,10.1902369 35.6111397,14.7537225 C35.6101484,16.6470125 34.9083005,18.4727036 33.6412793,19.8778477 C36.1167722,20.5545335 37.0738673,22.4142896 37.0738673,24.8934619 C37.078377,29.2896599 33.8715229,36.5598893 23.2938697,46.3635465 L23.2893551,46.3635465 Z" id="Shape"></path>
            </g>
        </g>
    </g>
</svg>