<?xml version="1.0" encoding="UTF-8"?>
<svg width="130px" height="54px" viewBox="0 0 130 54" version="1.1" xmlns="http://www.w3.org/2000/svg" xmlns:xlink="http://www.w3.org/1999/xlink">
    <!-- Generator: Sketch 62 (91390) - https://sketch.com -->
    <title>SVG Layer</title>
    <desc>Created with Sketch.</desc>
    <g id="Page-1" stroke="none" stroke-width="1" fill="none" fill-rule="evenodd">
        <g id="Artboard" transform="translate(-22.000000, 0.000000)" fill="#FFFFFF" fill-rule="nonzero">
            <g id="SVG-Layer" transform="translate(22.000000, 0.000000)">
                <path d="M112.35107,23.4829967 C110.153603,23.9921052 104.350035,24.2749433 104.350035,24.2749433 L103.636328,26.5753596 C103.636328,26.5753596 106.509939,26.3302333 108.613498,26.5376478 C108.613498,26.5376478 109.289642,26.4810802 109.364769,27.2918827 C109.402332,28.121541 109.308423,28.9889111 109.308423,28.9889111 C109.308423,28.9889111 109.252078,29.4980196 108.557152,29.6300107 C107.749536,29.7620018 102.302822,30.0071281 102.302822,30.0071281 L101.420079,32.9863558 C101.420079,32.9863558 101.100789,33.6651671 101.833278,33.4766084 C102.509422,33.2880497 108.219081,32.1944092 108.970351,32.3452562 C109.759186,32.5338149 110.660711,33.6274554 110.397766,34.6079607 C110.097258,35.7958806 104.387599,39.4539196 100.931753,39.2087933 C100.931753,39.2087933 99.109921,39.3219285 97.5885975,36.8518094 C96.1236193,34.4948255 98.0957054,30.0636958 98.0957054,30.0636958 C98.0957054,30.0636958 97.2129621,27.9895499 97.8703241,27.2353151 C97.8703241,27.2353151 98.2459595,26.9147653 99.3728659,26.8204859 L100.781499,23.9166817 C100.781499,23.9166817 99.1850481,24.0109611 98.2459595,22.8418971 C97.381998,21.7105448 97.3068709,21.2202922 97.9830147,20.9185982 C98.6967221,20.5414808 105.307906,19.3535609 109.853095,19.5044079 C109.853095,19.5044079 111.449545,19.3158492 112.858178,22.0876622 C112.858178,22.0876622 113.496758,23.2190145 112.369852,23.4829967 M95.2220942,34.6456724 C94.6586411,36.022151 93.099754,37.4740531 91.2215768,36.5878272 C89.305836,35.6827454 86.2819707,29.4980196 86.2819707,29.4980196 C86.2819707,29.4980196 85.1550644,27.1976033 84.9296831,27.2730268 C84.9296831,27.2730268 84.6855201,26.8204859 84.5540477,29.3471726 C84.36623,31.8550035 84.5916112,36.7386741 83.5586138,37.5117649 C82.6195252,38.2659997 81.4926188,37.9454499 80.8540386,37.059224 C80.328149,36.172998 80.1027677,34.0422846 80.403276,30.3276779 C80.7413479,26.6130713 81.5865277,22.6533384 82.6570887,21.4277068 C83.783995,20.1832193 84.6855201,21.0883011 85.023592,21.4277068 C85.023592,21.4277068 86.4697884,22.7476177 88.9114188,26.6507831 L89.3246178,27.3673062 C89.3246178,27.3673062 91.5408669,31.0819128 91.7662482,31.0630569 C91.7662482,31.0630569 91.9540659,31.2516156 92.1043201,31.1007687 C92.3297013,31.0442011 92.2545742,29.8374253 92.2545742,29.8374253 C92.2545742,29.8374253 91.8413752,25.8211247 89.7753803,19.0330111 C89.7753803,19.0330111 89.474872,18.165641 89.6814715,17.3359827 C89.8692892,16.5817479 90.6769054,16.9588653 90.6769054,16.9588653 C90.6769054,16.9588653 93.7946795,18.467335 95.3160031,23.5584202 C96.8185449,28.6495054 95.8043292,33.2691938 95.240876,34.6456724 M79.9337317,21.5785537 C79.6332234,22.1065181 79.501751,22.8418971 78.2058087,23.0493117 C78.2058087,23.0493117 65.6220214,23.9355376 65.0022229,24.8217636 C65.0022229,24.8217636 64.5890239,25.349728 65.2651677,25.4817191 C65.9788751,25.632566 68.8337044,26.0096834 70.185992,26.0851069 C71.6509702,26.0851069 76.5717945,26.1228187 78.3748447,28.3478115 C78.3748447,28.3478115 79.4078421,29.4037403 79.3702786,31.7984359 C79.332715,34.2496992 78.9007343,35.1170692 77.9428639,36.0032952 C76.94743,36.8329535 68.4205054,40.6795512 62.9174462,34.7965194 C62.9174462,34.7965194 60.4006888,31.9681387 63.8001895,29.8185694 C63.8001895,29.8185694 66.2418199,28.3100997 72.49615,30.0636958 C72.49615,30.0636958 74.3743272,30.7425071 74.2992001,31.4401743 C74.1865095,32.1944092 72.740313,32.948644 70.6367546,32.9109323 C68.6083232,32.8543647 67.1057814,31.8738594 67.4062898,32.0435622 C67.6880163,32.1378416 65.2088224,30.8367865 64.4387698,31.7230124 C63.6874989,32.5526707 63.8753166,33.0429234 64.6265875,33.5520319 C66.5047647,34.6456724 73.8860011,34.2496992 76.0834685,31.77958 C76.0834685,31.77958 76.9662118,30.7802189 75.6327059,29.9694164 C74.3179819,29.2151815 70.4865004,28.7437848 69.0027404,28.6872172 C67.5941075,28.6117937 62.3164295,28.6872172 61.5275951,27.3107386 C61.5275951,27.3107386 60.7763242,26.3302333 61.6027222,23.6526996 C62.4666837,20.8243189 68.6083232,19.7306783 71.2753348,19.5044079 C71.2753348,19.5044079 78.6002259,19.202714 79.9712953,20.7111836 C79.9712953,20.7111836 80.159113,21.0505893 79.9337317,21.5596979 M59.1610918,38.1528645 C58.2783485,38.81282 56.4001713,38.5299819 55.8554999,37.7757471 C55.3296103,37.1157916 55.1417926,34.5136813 55.2357014,30.4219573 C55.3671738,26.2359539 55.4235192,21.1071569 56.3626078,20.2774986 C57.3016964,19.4666962 57.8651495,20.1832193 58.240785,20.7300395 C58.6164204,21.2957157 59.1047465,21.9179594 59.1798736,23.2190145 C59.2925642,24.5389255 59.6118543,31.3270391 59.6118543,31.3270391 C59.6118543,31.3270391 60.0250533,37.5117649 59.1798736,38.1528645 M61.039269,16.0914952 C58.4473845,16.9777212 56.6818979,16.6948831 55.1793561,16.0349276 C54.5219941,17.2228475 54.1275769,17.581109 53.6392508,17.6565325 C52.8879799,17.731956 52.2306179,16.5251802 52.136709,16.1480628 C51.9864549,15.8652248 51.6296012,15.3561162 52.061582,14.2059081 C50.5966037,12.8859971 50.4839131,11.1135452 50.7468579,9.92562534 C51.0849298,8.53029087 53.5641237,3.28835868 61.0768326,2.66611493 C61.0768326,2.66611493 64.7580599,2.40213274 65.3966401,4.36314334 L65.5093308,4.36314334 C65.5093308,4.36314334 69.0778675,4.36314334 69.0027404,7.56864144 C69.0027404,10.7741395 65.0585682,14.7715842 61.039269,16.1480628 M64.3824245,6.96525356 C62.0159212,7.34237099 58.3722574,10.5101573 56.6255526,13.1311234 C59.311346,13.6213761 64.006789,13.4328174 66.1103475,9.17139049 C66.1103475,9.17139049 67.1057814,6.49385678 64.3824245,6.96525356 M53.9961045,9.03939939 C53.2448336,10.265031 53.2072701,11.00041 53.5641237,11.4906626 C54.446867,10.1707517 56.0057541,8.09660583 58.3534756,6.47500091 C56.5504255,6.66355962 55.0291019,7.41779447 53.9961045,9.03939939 M117.985602,38.0208734 C116.257679,42.2823003 114.792701,46.6002948 113.947521,53.0678586 C113.947521,53.0678586 113.759703,54.331202 112.726706,53.9163728 C111.693708,53.5392554 110.003349,51.842227 109.627713,49.4475313 C109.252078,46.3174567 110.641929,41.0378128 113.477977,34.9662223 C112.651579,33.6463113 112.069344,31.6853007 112.538888,28.9323435 C112.538888,28.9323435 113.290159,23.8412583 118.361237,19.2404257 C118.361237,19.2404257 118.962254,18.7313172 119.300326,18.90102 C119.713525,19.0895787 119.544489,20.7111836 119.206417,21.540842 C118.905909,22.3327886 116.652096,26.2548098 116.652096,26.2548098 C116.652096,26.2548098 115.243463,28.9323435 115.63788,31.0253452 C118.304892,26.9147653 124.371405,18.5804702 128.127759,21.2202922 C130.513044,22.9173206 130.513044,28.3855232 128.728776,31.5533096 C127.320143,34.0611404 123.338407,39.246505 118.023166,38.0397293 M125.836383,25.2177369 C124.446532,26.7262066 121.967338,29.592299 120.014033,33.4766084 C122.080028,33.250338 124.089678,32.1001298 124.709476,31.5155978 C125.70491,30.6293719 127.996287,28.2346762 127.639433,25.0668899 C127.639433,25.0668899 127.414052,23.4075732 125.836383,25.2177369 M41.6940438,40.2458662 C35.0452964,42.2823003 28.7721846,41.3395067 25.353902,40.4344249 C25.2599932,41.8297594 25.109739,42.4142914 24.8843577,42.6405618 C24.6214129,42.9422558 22.4427274,44.1867433 21.240694,42.4142914 C20.7148043,41.5657772 20.4518595,40.0384516 20.3016054,38.6431171 C12.6010788,35.1359251 9.0325421,29.9694164 8.91985147,29.7808577 C8.73203375,29.592299 6.98532894,27.7632795 8.73203375,25.5005749 C10.3660479,23.4641408 15.7751983,21.4088509 20.6208955,20.5980484 C20.8087132,16.4497568 21.2594757,13.2442587 21.8417107,11.8300683 C22.5366362,10.1330399 23.4193795,11.6415096 24.2082139,12.7728619 C24.8467942,13.6213761 25.2412114,17.2605592 25.278775,20.1643634 C28.4341127,20.0135164 30.3498534,20.2397869 33.8620448,20.9185982 C38.4823607,21.7105448 41.5625714,24.0863846 41.3184083,26.7639183 C41.0930271,29.4037403 38.6889602,30.4973808 37.7498716,30.5728043 C36.810783,30.6482278 35.3082413,29.9505605 35.3082413,29.9505605 C34.256462,29.4603079 35.2143324,29.007767 36.4351476,28.4798026 C37.7874352,27.8198471 37.4869268,27.1598916 37.4869268,27.1598916 C36.9986007,25.6514219 31.0072154,24.6520607 25.0533937,24.6520607 C25.0533937,27.9518382 25.1848661,33.4200408 25.278775,36.606683 C29.4483284,37.3986296 32.5661025,37.2289268 32.5661025,37.2289268 C32.5661025,37.2289268 47.7793379,36.7952418 48.2113187,27.0467564 C48.680863,17.2794151 32.9980833,7.92690299 21.4472935,4.98538709 C9.91528539,1.94959183 3.3792287,4.09916114 2.81577554,4.38199921 C2.19597706,4.68369315 2.75943022,4.79682838 2.75943022,4.79682838 C2.75943022,4.79682838 3.3792287,4.89110773 4.50613503,5.26822516 C5.63304135,5.64534258 4.73151629,6.21101871 4.73151629,6.21101871 C2.75943022,6.88983008 0.561962886,6.49385678 0.129982128,5.58877497 C-0.30199863,4.70254902 0.41170871,3.89174656 1.25688845,2.70382668 C2.04572288,1.47819505 2.94724794,1.51590679 2.94724794,1.51590679 C17.2213947,-3.48089907 34.6508792,5.47563974 34.6508792,5.47563974 C50.9534574,13.7345113 53.7331597,23.445285 53.4326513,27.2164592 C53.1697065,30.9310658 51.7422918,37.2100709 41.6940438,40.2647221 M10.3284844,26.7639183 C8.71325197,27.5181531 9.8401583,28.7249289 9.8401583,28.7249289 C12.8828054,31.9869946 16.6015963,34.0422846 20.1701329,35.3244838 C20.5833319,29.6677225 20.5457684,27.6501442 20.5457684,24.8029077 C15.0239274,25.1800251 11.8310261,26.0851069 10.3284844,26.7639183" id="Shape"></path>
            </g>
        </g>
    </g>
</svg>