<?xml version="1.0" encoding="UTF-8"?>
<svg width="50px" height="290px" viewBox="0 0 50 290" version="1.1" xmlns="http://www.w3.org/2000/svg" xmlns:xlink="http://www.w3.org/1999/xlink">
    <!-- Generator: Sketch 62 (91390) - https://sketch.com -->
    <title>Dots</title>
    <desc>Created with Sketch.</desc>
    <g id="Website" stroke="none" stroke-width="1" fill="none" fill-rule="evenodd" opacity="0.400000006">
        <g id="Set-Medic-LA" transform="translate(0.000000, -844.000000)" fill="#D8D8D8">
            <g id="Dots" transform="translate(0.000000, 844.000000)">
                <circle id="Oval" cx="2.5" cy="2.5" r="2.5"></circle>
                <circle id="Oval" cx="17.5" cy="2.5" r="2.5"></circle>
                <circle id="Oval" cx="32.5" cy="2.5" r="2.5"></circle>
                <circle id="Oval" cx="47.5" cy="2.5" r="2.5"></circle>
                <circle id="Oval" cx="2.5" cy="17.5" r="2.5"></circle>
                <circle id="Oval" cx="17.5" cy="17.5" r="2.5"></circle>
                <circle id="Oval" cx="32.5" cy="17.5" r="2.5"></circle>
                <circle id="Oval" cx="47.5" cy="17.5" r="2.5"></circle>
                <circle id="Oval" cx="2.5" cy="32.5" r="2.5"></circle>
                <circle id="Oval" cx="17.5" cy="32.5" r="2.5"></circle>
                <circle id="Oval" cx="32.5" cy="32.5" r="2.5"></circle>
                <circle id="Oval" cx="47.5" cy="32.5" r="2.5"></circle>
                <circle id="Oval" cx="2.5" cy="47.5" r="2.5"></circle>
                <circle id="Oval" cx="17.5" cy="47.5" r="2.5"></circle>
                <circle id="Oval" cx="32.5" cy="47.5" r="2.5"></circle>
                <circle id="Oval" cx="47.5" cy="47.5" r="2.5"></circle>
                <circle id="Oval" cx="2.5" cy="62.5" r="2.5"></circle>
                <circle id="Oval" cx="17.5" cy="62.5" r="2.5"></circle>
                <circle id="Oval" cx="32.5" cy="62.5" r="2.5"></circle>
                <circle id="Oval" cx="47.5" cy="62.5" r="2.5"></circle>
                <circle id="Oval" cx="2.5" cy="77.5" r="2.5"></circle>
                <circle id="Oval" cx="17.5" cy="77.5" r="2.5"></circle>
                <circle id="Oval" cx="32.5" cy="77.5" r="2.5"></circle>
                <circle id="Oval" cx="47.5" cy="77.5" r="2.5"></circle>
                <circle id="Oval" cx="2.5" cy="92.5" r="2.5"></circle>
                <circle id="Oval" cx="17.5" cy="92.5" r="2.5"></circle>
                <circle id="Oval" cx="32.5" cy="92.5" r="2.5"></circle>
                <circle id="Oval" cx="47.5" cy="92.5" r="2.5"></circle>
                <circle id="Oval" cx="2.5" cy="107.5" r="2.5"></circle>
                <circle id="Oval" cx="17.5" cy="107.5" r="2.5"></circle>
                <circle id="Oval" cx="32.5" cy="107.5" r="2.5"></circle>
                <circle id="Oval" cx="47.5" cy="107.5" r="2.5"></circle>
                <circle id="Oval" cx="2.5" cy="122.5" r="2.5"></circle>
                <circle id="Oval" cx="17.5" cy="122.5" r="2.5"></circle>
                <circle id="Oval" cx="32.5" cy="122.5" r="2.5"></circle>
                <circle id="Oval" cx="47.5" cy="122.5" r="2.5"></circle>
                <circle id="Oval" cx="2.5" cy="137.5" r="2.5"></circle>
                <circle id="Oval" cx="17.5" cy="137.5" r="2.5"></circle>
                <circle id="Oval" cx="32.5" cy="137.5" r="2.5"></circle>
                <circle id="Oval" cx="47.5" cy="137.5" r="2.5"></circle>
                <circle id="Oval" cx="2.5" cy="152.5" r="2.5"></circle>
                <circle id="Oval" cx="17.5" cy="152.5" r="2.5"></circle>
                <circle id="Oval" cx="32.5" cy="152.5" r="2.5"></circle>
                <circle id="Oval" cx="47.5" cy="152.5" r="2.5"></circle>
                <circle id="Oval" cx="2.5" cy="167.5" r="2.5"></circle>
                <circle id="Oval" cx="17.5" cy="167.5" r="2.5"></circle>
                <circle id="Oval" cx="32.5" cy="167.5" r="2.5"></circle>
                <circle id="Oval" cx="47.5" cy="167.5" r="2.5"></circle>
                <circle id="Oval" cx="2.5" cy="182.5" r="2.5"></circle>
                <circle id="Oval" cx="17.5" cy="182.5" r="2.5"></circle>
                <circle id="Oval" cx="32.5" cy="182.5" r="2.5"></circle>
                <circle id="Oval" cx="47.5" cy="182.5" r="2.5"></circle>
                <circle id="Oval" cx="2.5" cy="197.5" r="2.5"></circle>
                <circle id="Oval" cx="17.5" cy="197.5" r="2.5"></circle>
                <circle id="Oval" cx="32.5" cy="197.5" r="2.5"></circle>
                <circle id="Oval" cx="47.5" cy="197.5" r="2.5"></circle>
                <circle id="Oval" cx="2.5" cy="212.5" r="2.5"></circle>
                <circle id="Oval" cx="17.5" cy="212.5" r="2.5"></circle>
                <circle id="Oval" cx="32.5" cy="212.5" r="2.5"></circle>
                <circle id="Oval" cx="47.5" cy="212.5" r="2.5"></circle>
                <circle id="Oval" cx="2.5" cy="227.5" r="2.5"></circle>
                <circle id="Oval" cx="17.5" cy="227.5" r="2.5"></circle>
                <circle id="Oval" cx="32.5" cy="227.5" r="2.5"></circle>
                <circle id="Oval" cx="47.5" cy="227.5" r="2.5"></circle>
                <circle id="Oval" cx="2.5" cy="242.5" r="2.5"></circle>
                <circle id="Oval" cx="17.5" cy="242.5" r="2.5"></circle>
                <circle id="Oval" cx="32.5" cy="242.5" r="2.5"></circle>
                <circle id="Oval" cx="47.5" cy="242.5" r="2.5"></circle>
                <circle id="Oval" cx="2.5" cy="257.5" r="2.5"></circle>
                <circle id="Oval" cx="17.5" cy="257.5" r="2.5"></circle>
                <circle id="Oval" cx="32.5" cy="257.5" r="2.5"></circle>
                <circle id="Oval" cx="47.5" cy="257.5" r="2.5"></circle>
                <circle id="Oval" cx="2.5" cy="272.5" r="2.5"></circle>
                <circle id="Oval" cx="17.5" cy="272.5" r="2.5"></circle>
                <circle id="Oval" cx="32.5" cy="272.5" r="2.5"></circle>
                <circle id="Oval" cx="47.5" cy="272.5" r="2.5"></circle>
                <circle id="Oval" cx="2.5" cy="287.5" r="2.5"></circle>
                <circle id="Oval" cx="17.5" cy="287.5" r="2.5"></circle>
                <circle id="Oval" cx="32.5" cy="287.5" r="2.5"></circle>
                <circle id="Oval" cx="47.5" cy="287.5" r="2.5"></circle>
            </g>
        </g>
    </g>
</svg>